<?xml version="1.0" encoding="UTF-8"?>
<svg id="Layer_1" xmlns="http://www.w3.org/2000/svg" version="1.1" viewBox="0 0 600 600">
  <!-- Generator: Adobe Illustrator 29.1.0, SVG Export Plug-In . SVG Version: 2.1.0 Build 142)  -->
  <defs>
    <style>
      .st0 {
        fill: #c2cfc7;
      }

      .st1 {
        fill: #002d3a;
        opacity: .65;
      }

      .st2 {
        fill: #7bc36b;
      }

      .st3 {
        fill: #fff;
      }
    </style>
  </defs>
  <g>
    <path class="st1" d="M360.42,57.86c55.71,23.56,94.8,78.73,94.8,143.03,0,85.73-69.5,155.22-155.22,155.22s-155.22-69.5-155.22-155.22S214.27,45.67,300,45.67c21.43,0,41.85,4.34,60.42,12.2"/>
    <path class="st0" d="M300,378.42c-97.89,0-177.53-79.64-177.53-177.54S202.11,23.35,300,23.35c23.97,0,47.22,4.69,69.11,13.95,65.87,27.86,108.43,92.07,108.43,163.58,0,97.89-79.64,177.54-177.54,177.54ZM300,30.06c-94.19,0-170.83,76.63-170.83,170.83s76.63,170.83,170.83,170.83,170.83-76.63,170.83-170.83c0-68.81-40.95-130.6-104.33-157.41-21.06-8.91-43.43-13.42-66.5-13.42Z"/>
    <g>
      <path class="st2" d="M398.51,105.32c-.87,0-1.75-.33-2.42-1-47.57-47.38-125.62-52.44-177.7-11.5-1.49,1.17-3.65.91-4.82-.58-1.17-1.49-.91-3.65.58-4.82,54.76-43.05,136.81-37.76,186.79,12.03,1.34,1.34,1.35,3.51,0,4.85-.67.67-1.55,1.01-2.43,1.01Z"/>
      <path class="st2" d="M172.89,260.59c-1.32,0-2.57-.76-3.14-2.04-19.77-44.71-14.25-98.07,14.41-139.28,1.08-1.56,3.21-1.94,4.78-.86,1.55,1.08,1.94,3.22.86,4.78-27.3,39.25-32.57,90.05-13.77,132.58.77,1.73-.02,3.76-1.75,4.52-.45.2-.92.29-1.39.29Z"/>
      <path class="st2" d="M215.45,315.03c-.73,0-1.46-.23-2.08-.71-7.59-5.81-14.63-12.46-20.92-19.77-1.24-1.44-1.08-3.6.36-4.84,1.43-1.23,3.6-1.08,4.84.36,5.98,6.95,12.67,13.28,19.89,18.79,1.5,1.15,1.79,3.3.64,4.81-.67.88-1.7,1.35-2.73,1.35Z"/>
      <path class="st2" d="M300.1,343.45c-16.91,0-34-3.01-50.07-8.97-1.78-.66-2.68-2.63-2.02-4.41.66-1.78,2.64-2.69,4.41-2.03,25.36,9.4,53.36,11.11,78.85,4.81,35.91-8.87,67.36-33.88,86.29-68.61,18.74-34.39,22.69-73.92,10.84-108.46-.61-1.79.34-3.74,2.13-4.36,1.79-.61,3.74.34,4.36,2.13,12.47,36.36,8.35,77.89-11.31,113.97-19.85,36.42-52.9,62.66-90.67,71.99-10.64,2.63-21.69,3.93-32.81,3.93Z"/>
      <path class="st2" d="M425,142.22c-1.26,0-2.48-.7-3.08-1.91-1.59-3.2-3.32-6.39-5.16-9.46-.97-1.63-.44-3.73,1.19-4.7,1.63-.97,3.74-.44,4.7,1.19,1.92,3.22,3.75,6.56,5.41,9.92.84,1.7.15,3.76-1.55,4.6-.49.24-1.01.36-1.52.36Z"/>
    </g>
    <path class="st3" d="M375.91,173.04c-3.76,4.64-7.61,9.03-13.94,10.47-8.7,1.99-17.09,5.56-26.28,4.79-2.27-.19-4.54-.55-7.22-.89.93.77,1.52,1.46,2.27,1.86,3.27,1.78,4.18,4.91,5.1,8.19,2.47,8.88,4.99,17.74,7.81,26.5.7,2.18,2.41,4.16,4.02,5.89,4.19,4.47,8.54,8.79,12.93,13.07.81.8,2.11,1.09,3.23,1.64-.71,2.37.24,3.54,3.93,5.49.5.92.87,1.94,1.52,2.75.66.83,1.81,1.32,2.33,2.21.47.8.36,1.94.54,3.16-1.31-.46-2.49-.88-3.6-1.27-.61-1.35-.91-3.66-2.08-4.26-1.96-1-2.53-2.54-3.41-4.16-.32-.58-1.38-.74-1.84-.98-1.05-1.56-1.84-3.26-3.08-4.48-4.19-4.1-8.21-8.53-12.97-11.84-3.08-2.14-3.58-4.69-4.38-7.72-2.49-9.4-4.6-18.98-8.13-28-1.54-3.9-5.7-7.55-9.59-9.54-4.01-2.05-8.2-3.59-11.51-6.81-.95-.92-2.17-1.56-3.65-1.86,1.8,3.6,3.8,7.12,5.38,10.82,3.01,7.08,5.8,14.26,8.63,21.42.23.56.08,1.36-.1,1.99-2.72,9.72-5.5,19.41-8.16,29.14-.25.91.05,2.14.48,3.03,4.5,9.33,9.1,18.61,13.64,27.92,2.08,4.26,3.75,8.77,6.22,12.78,2.19,3.56,5.24,6.59,7.91,9.85.17.2.53.39.51.56-.32,3.21,1.91,4.72,4.15,6-.23,1.32-.42,2.39-.62,3.56-1.77-.58-3.44-.86-3.56-3.53-.06-1.37-1.72-2.65-2.59-4.01-.65-1-1.17-2.08-1.77-3.1-3.01-5.11-5.97-10.24-9.07-15.28-.55-.89-1.72-1.4-2.86-2.3-.64-1.41-1.39-3.26-2.3-5.05-4.99-9.89-9.98-19.78-12.96-30.52-.21-.75-.08-1.71.21-2.44.76-1.9,2.05-3.65,2.5-5.6,1.46-6.3,2.25-12.78,4.07-18.96.9-3.03.13-5.19-.86-7.71-3.03-7.73-5.96-15.49-8.96-23.23-.34-.87-.83-1.68-1.78-2.43,0,2.95,0,5.89,0,8.84,0,2.19.13,4.38.01,6.56-.24,4.6-.39,9.22-.95,13.79-.58,4.74-2.02,9.23-5.43,13.08-3.23-3.95-4.91-8.35-5.11-13.04-.32-7.62-.04-15.28-.12-22.91-.02-2.19-.4-4.37-1.18-6.77-2.05,5.12-4.1,10.25-6.14,15.37-.99,2.46-1.62,5.14-3.03,7.33-4.03,6.23-1.84,12.53-.68,18.83.74,4.1,1.58,8.18,2.59,12.22.39,1.52,1.46,2.87,2.03,4.36.31.82.49,1.87.26,2.69-3.38,11.76-9.36,22.36-14.82,33.2-.42.83-.61,1.77-1.22,2.26-.91.73-2.11,1.29-2.68,2.23-3.4,5.58-6.67,11.25-9.98,16.88-.21.37-.4.89-.73,1.06-2.61,1.37-3.18,3.79-3.42,6.54-.98.32-2.02.66-3.06,1-.71-2.38-.61-4.32,2.04-5.28.22-.08.48-.35.52-.57.75-3.85,4-6,6.06-8.96,2.18-3.12,4.67-6.1,6.38-9.47,6.04-11.89,11.83-23.92,17.63-35.93.46-.95.67-2.26.43-3.26-2.11-8.79-4.11-17.61-6.7-26.27-.87-2.92-1.01-5.21.28-7.93,4.43-9.35,8.67-18.8,12.98-28.22.1-.21.12-.46.4-1.49-1.72,1.2-3.01,1.88-4.05,2.85-3.26,3.01-6.85,5.32-11.28,6.21-.9.18-1.8.78-2.53,1.38-4.51,3.73-8.15,7.93-9.58,13.97-2.12,8.95-4.78,17.77-7.25,26.63-.15.55-.54,1.1-.98,1.47-5.63,4.85-11.32,9.62-16.9,14.53-.83.74-1.12,2.09-1.86,2.88-.9.87-2.06,1.59-2.63,2.63-.55,1.02-.81,1.62-2.09,2.25-1.43.71-2.03,3.12-3.12,4.99-.75.25-1.99.66-3.85,1.28,1.54-1.81.43-4.2,3.04-5.21.93-.36,2.65-1.62,1.31-3.43,4.2-1.21,5.63-2.84,4.61-4.92,1.42-.83,2.89-1.53,4.16-2.49,1.34-1.01,2.5-2.27,3.72-3.43,12.15-11.43,13.83-14.49,17.76-30.82,1.21-4.98,2.89-9.85,4.44-14.74.19-.6.87-1.08,1.4-1.52,1.33-1.11,2.72-2.16,4.38-3.48-3.91.17-7.34.62-10.73.42-9.59-.56-18.73-3.43-27.34-7.28-3.67-1.64-6.36-5.76-9.09-9.09-1.47-1.78.26-3.23,1.98-3.72,3.82-1.08,7.68-2.29,11.6-2.77,10.57-1.28,21.1-.07,31.61,1.18,6.43.77,12.86,1.54,19.29,2.34,3.62.44,4.98-.85,4.66-4.46-.04-.52-.06-1.04-.66-1.05-.84-.59-1.7-1.18-2.54-1.8-2.26-1.67-4.47-3.43-6.78-5.02-2.5-1.72-5.29-2.59-5.64-6.71-.36-4.12-2.5-8.08-3.72-12.15-.97-3.22-2-6.46-2.5-9.78-.49-3.22-2.08-5.48-4.41-7.56-2.91-2.59-5.56-5.49-8.52-8.05-1.24-1.06-6.74-8-7.17-9.26,3.79.06,3.92,3.35,5.76,4.82,2.65,2.13,3.2,2.62,5.96,5.23,3.03,2.87,5.91,5.89,8.98,8.99.39-.72.68-1.29.99-1.87.18.13.4.21.42.32.52,3.28.8,6.61,1.56,9.83,1.39,5.86,3.06,11.65,4.57,17.48.8,3.06,2.46,5.32,5.25,6.93,3.05,1.76,5.93,3.82,8.53,5.52,1.57-1.94,3.21-3.73,4.5-5.73.39-.62.18-2.11-.32-2.75-2.72-3.45-2.78-3.41.49-5.87.12-2.65-.44-4.93-1.92-6.83-.15-.19-.31-.38-.46-.57-.53-.58-1.12-1.12-1.85-1.62-1.58-1.06-2.74-2.77-4.09-4.17.23-.22.45-.44.67-.66l5.26,6.45c.17.18.32.37.46.57l1.01,1.24c.38-.34.76-.68,1.14-1.03-1.32-5.44-3.41-10.76-2.88-16.51,1.15,5.29,2.3,10.57,3.44,15.85.3-.01.59-.02.89-.04.22-4.45.44-8.9.66-13.35l.66.02v13.43c2.9-5.01,3.81-10.5,4.97-15.95.4,5.74-1.83,11.01-3.32,17.04,2.95-2.87,5.46-5.33,7.97-7.78.29.3.57.61.86.92-2.02,1.87-3.87,3.97-6.1,5.54-2.58,1.82-1.97,4.57-2.58,6.96-.09.34.82,1.03,1.35,1.43,1.76,1.34,1.86,2.63.13,4.11-2.36,2.01-2.24,2.44-.24,4.66,1.2,1.34,1.97,3.07,3.28,5.17,4.03-3.05,8.32-6.18,12.44-9.51.86-.68,1.22-2.12,1.55-3.28,2.19-7.58,4.39-15.15,6.42-22.77.39-1.43.06-3.05.06-5.39.65,1.25.95,1.82,1.21,2.33,10.2-9.15,11.11-9.95,21.37-19.14.3.2.6.41.89.62-.74,1.22-3.32,3.88-3.4,6.77-1.99.97-3.97,1.51-5.38,2.72-3.77,3.24-7.33,6.73-10.88,10.21-.64.62-.93,1.67-1.2,2.58-2.53,8.11-5.63,16.11-7.26,24.4-.8,4.04-3.41,4.72-5.79,6.45-2.54,1.83-5.88,2.64-7.36,5.89-.17.39-1.47.26-2.47.41-.07.73-.55,1.97-.21,2.94.64,1.83,1.36,3.4,4.22,3.04,9.77-1.24,19.58-2.22,29.4-2.99,10.64-.83,21.3-1.22,31.63,2.35.92.32,1.86.61,2.71,1.06,1.78.95,2.11,2.41.86,3.96"/>
  </g>
  <g>
    <path class="st3" d="M190.96,424.51h15.52v42.4h27.12v13.6h-42.64v-56Z"/>
    <path class="st3" d="M241.6,437.23h15.2v43.28h-15.2v-43.28ZM251.36,418.75l14.16,4.56-11.76,10.24h-10.72l8.32-14.8Z"/>
    <path class="st3" d="M267.2,437.23h15.2v6.08c2.8-3.6,6.8-7.04,12.96-7.04,9.2,0,14.72,6.08,14.72,15.92v28.32h-15.2v-23.44c0-4.72-2.48-7.28-6.08-7.28s-6.4,2.56-6.4,7.28v23.44h-15.2v-43.28Z"/>
    <path class="st3" d="M318.08,459.07v-.16c0-12.64,9.04-22.64,21.84-22.64,14.96,0,21.84,10.96,21.84,23.68,0,.96,0,2.08-.08,3.12h-28.96c1.2,4.72,4.64,7.12,9.36,7.12,3.6,0,6.48-1.36,9.6-4.4l8.4,6.96c-4.16,5.28-10.16,8.8-18.8,8.8-13.6,0-23.2-9.04-23.2-22.48ZM347.52,455.31c-.56-4.8-3.36-7.84-7.52-7.84s-6.72,3.12-7.52,7.84h15.04Z"/>
    <path class="st3" d="M368,468.11v-.16c0-8.96,6.8-13.6,16.96-13.6,4,0,7.92.8,10.4,1.68v-.72c0-4.48-2.8-7.04-8.64-7.04-4.56,0-8.08.88-11.92,2.4l-3.12-10.72c4.88-2,10.08-3.36,17.52-3.36s13.04,1.84,16.48,5.28c3.28,3.2,4.64,7.68,4.64,13.76v24.88h-15.04v-4.48c-2.96,3.28-7.04,5.44-12.72,5.44-8.24,0-14.56-4.72-14.56-13.36ZM395.52,464.83v-2c-1.52-.64-3.68-1.12-5.92-1.12-4.4,0-6.96,2.16-6.96,5.36v.16c0,2.96,2.24,4.72,5.36,4.72,4.4,0,7.52-2.8,7.52-7.12Z"/>
    <path class="st3" d="M13.65,555.19l8.64-10.32c5.52,4.4,11.68,6.72,18.16,6.72,4.16,0,6.4-1.44,6.4-3.84v-.16c0-2.32-1.84-3.6-9.44-5.36-11.92-2.72-21.12-6.08-21.12-17.6v-.16c0-10.4,8.24-17.92,21.68-17.92,9.52,0,16.96,2.56,23.04,7.44l-7.76,10.96c-5.12-3.6-10.72-5.52-15.68-5.52-3.76,0-5.6,1.6-5.6,3.6v.16c0,2.56,1.92,3.68,9.68,5.44,12.88,2.8,20.88,6.96,20.88,17.44v.16c0,11.44-9.04,18.24-22.64,18.24-9.92,0-19.36-3.12-26.24-9.28Z"/>
    <path class="st3" d="M68.92,551.11v-.16c0-8.96,6.8-13.6,16.96-13.6,4,0,7.92.8,10.4,1.68v-.72c0-4.48-2.8-7.04-8.64-7.04-4.56,0-8.08.88-11.92,2.4l-3.12-10.72c4.88-2,10.08-3.36,17.52-3.36s13.04,1.84,16.48,5.28c3.28,3.2,4.64,7.68,4.64,13.76v24.88h-15.04v-4.48c-2.96,3.28-7.04,5.44-12.72,5.44-8.24,0-14.56-4.72-14.56-13.36ZM96.45,547.83v-2c-1.52-.64-3.68-1.12-5.92-1.12-4.4,0-6.96,2.16-6.96,5.36v.16c0,2.96,2.24,4.72,5.36,4.72,4.4,0,7.52-2.8,7.52-7.12Z"/>
    <path class="st3" d="M121.24,505.11h15.2v58.4h-15.2v-58.4Z"/>
    <path class="st3" d="M146.52,548.55v-28.32h15.2v23.44c0,4.72,2.48,7.28,6.16,7.28s6.32-2.56,6.32-7.28v-23.44h15.2v43.28h-15.2v-5.92c-2.8,3.6-6.8,6.88-12.96,6.88-9.2,0-14.72-6.08-14.72-15.92ZM169.32,501.75l14.16,4.56-11.76,10.24h-10.72l8.32-14.8Z"/>
    <path class="st3" d="M197.88,542.07v-.16c0-14.08,8.8-22.64,19.04-22.64,6.56,0,10.4,2.96,13.28,6.24v-20.4h15.2v58.4h-15.2v-5.76c-2.96,3.6-6.72,6.72-13.2,6.72-10.24,0-19.12-8.56-19.12-22.4ZM230.44,541.91v-.16c0-5.68-3.92-9.76-8.8-9.76s-8.88,4-8.88,9.76v.16c0,5.76,4,9.84,8.88,9.84s8.8-4.08,8.8-9.84Z"/>
    <path class="st3" d="M280.44,507.51h24c14.16,0,23.28,7.28,23.28,19.68v.16c0,13.2-10.16,20.16-24.08,20.16h-7.68v16h-15.52v-56ZM303.32,535.35c5.52,0,8.88-2.88,8.88-7.28v-.16c0-4.8-3.36-7.36-8.96-7.36h-7.28v14.8h7.36Z"/>
    <path class="st3" d="M335,548.55v-28.32h15.2v23.44c0,4.72,2.48,7.28,6.16,7.28s6.32-2.56,6.32-7.28v-23.44h15.2v43.28h-15.2v-5.92c-2.8,3.6-6.8,6.88-12.96,6.88-9.2,0-14.72-6.08-14.72-15.92ZM357.8,501.75l14.16,4.56-11.76,10.24h-10.72l8.32-14.8Z"/>
    <path class="st3" d="M403.16,558.23v5.28h-15.2v-58.4h15.2v20.88c2.96-3.6,6.64-6.72,13.12-6.72,10.32,0,19.2,8.56,19.2,22.4v.16c0,14.08-8.88,22.64-19.12,22.64-6.56,0-10.4-2.96-13.2-6.24ZM420.52,541.91v-.16c0-5.68-3.92-9.76-8.88-9.76s-8.8,4.08-8.8,9.76v.16c0,5.76,3.92,9.84,8.8,9.84s8.88-4,8.88-9.84Z"/>
    <path class="st3" d="M444.28,505.11h15.2v58.4h-15.2v-58.4Z"/>
    <path class="st3" d="M469.88,505.11h15.84v11.2h-15.84v-11.2ZM470.2,520.23h15.2v43.28h-15.2v-43.28Z"/>
    <path class="st3" d="M494.04,542.07v-.16c0-12.24,9.52-22.56,23.2-22.56,8.88,0,14.8,3.84,18.48,9.68l-10.32,7.68c-2.08-2.88-4.4-4.56-8.08-4.56-4.88,0-8.48,4.32-8.48,9.6v.16c0,5.6,3.52,9.84,8.64,9.84,3.6,0,5.92-1.68,8.32-4.48l10.16,7.36c-4,5.92-9.76,9.92-19.28,9.92-13.04,0-22.64-10.24-22.64-22.48Z"/>
    <path class="st3" d="M541.08,551.11v-.16c0-8.96,6.8-13.6,16.96-13.6,4,0,7.92.8,10.4,1.68v-.72c0-4.48-2.8-7.04-8.64-7.04-4.56,0-8.08.88-11.92,2.4l-3.12-10.72c4.88-2,10.08-3.36,17.52-3.36s13.04,1.84,16.48,5.28c3.28,3.2,4.64,7.68,4.64,13.76v24.88h-15.04v-4.48c-2.96,3.28-7.04,5.44-12.72,5.44-8.24,0-14.56-4.72-14.56-13.36ZM568.6,547.83v-2c-1.52-.64-3.68-1.12-5.92-1.12-4.4,0-6.96,2.16-6.96,5.36v.16c0,2.96,2.24,4.72,5.36,4.72,4.4,0,7.52-2.8,7.52-7.12Z"/>
  </g>
</svg>