<?xml version="1.0" encoding="UTF-8"?>
<svg id="Layer_1" xmlns="http://www.w3.org/2000/svg" version="1.1" viewBox="0 0 600 600">
  <!-- Generator: Adobe Illustrator 29.1.0, SVG Export Plug-In . SVG Version: 2.1.0 Build 142)  -->
  <defs>
    <style>
      .st0 {
        fill: #c2cfc7;
      }

      .st1 {
        fill: #002d3a;
        opacity: .65;
      }

      .st2 {
        fill: #7bc36b;
      }

      .st3 {
        fill: #fff;
      }
    </style>
  </defs>
  <g>
    <path class="st1" d="M361.19,59.57c55.68,23.55,94.75,78.69,94.75,142.95,0,85.68-69.46,155.14-155.14,155.14s-155.14-69.46-155.14-155.14S215.12,47.38,300.8,47.38c21.42,0,41.83,4.34,60.39,12.19"/>
    <path class="st0" d="M300.8,379.95c-97.84,0-177.44-79.6-177.44-177.44S202.96,25.08,300.8,25.08c23.95,0,47.19,4.69,69.07,13.95,65.83,27.84,108.37,92.02,108.37,163.49,0,97.84-79.6,177.44-177.44,177.44ZM300.8,31.78c-94.14,0-170.73,76.59-170.73,170.74s76.59,170.74,170.73,170.74,170.74-76.59,170.74-170.74c0-68.77-40.93-130.53-104.28-157.32-21.05-8.9-43.41-13.42-66.46-13.42Z"/>
    <g>
      <path class="st2" d="M399.26,107c-.87,0-1.75-.33-2.42-1-47.54-47.36-125.55-52.41-177.6-11.49-1.49,1.17-3.65.91-4.81-.58-1.17-1.49-.91-3.64.58-4.81,54.73-43.02,136.73-37.74,186.68,12.02,1.34,1.34,1.35,3.51,0,4.85-.67.67-1.55,1.01-2.43,1.01Z"/>
      <path class="st2" d="M173.76,262.18c-1.32,0-2.57-.76-3.14-2.04-19.76-44.68-14.24-98.02,14.4-139.2,1.08-1.56,3.21-1.94,4.77-.86,1.55,1.08,1.94,3.22.86,4.77-27.28,39.23-32.55,90-13.76,132.51.77,1.73-.02,3.76-1.75,4.52-.45.2-.92.29-1.39.29Z"/>
      <path class="st2" d="M216.3,316.59c-.73,0-1.46-.23-2.08-.71-7.59-5.8-14.62-12.45-20.91-19.76-1.24-1.44-1.07-3.6.36-4.84,1.43-1.23,3.6-1.08,4.83.36,5.98,6.95,12.67,13.27,19.88,18.78,1.5,1.15,1.79,3.3.64,4.81-.67.88-1.69,1.35-2.73,1.35Z"/>
      <path class="st2" d="M300.9,345c-16.9,0-33.98-3.01-50.04-8.96-1.77-.66-2.68-2.63-2.02-4.41.66-1.78,2.64-2.68,4.41-2.02,25.34,9.39,53.33,11.1,78.81,4.81,35.89-8.87,67.32-33.86,86.24-68.57,18.73-34.37,22.68-73.88,10.83-108.4-.61-1.79.34-3.74,2.13-4.36,1.79-.61,3.74.34,4.36,2.13,12.47,36.34,8.35,77.85-11.3,113.9-19.84,36.4-52.87,62.62-90.62,71.95-10.63,2.63-21.68,3.93-32.8,3.93Z"/>
      <path class="st2" d="M425.74,143.88c-1.26,0-2.48-.7-3.07-1.91-1.59-3.2-3.32-6.38-5.15-9.45-.97-1.63-.44-3.73,1.19-4.7,1.63-.97,3.73-.44,4.7,1.19,1.92,3.22,3.74,6.56,5.41,9.92.84,1.7.15,3.75-1.55,4.59-.49.24-1.01.36-1.52.36Z"/>
    </g>
    <path class="st3" d="M195.3,241.61c.02.54-.05,1.08,0,1.61,0,.07.02.13,0,.19,4.57,3.29,7.31,6.71,8.96,9.65-1.48-.36-2.79-.56-3.82-.47,0,0,1.04.38,2.69.98-.06.02-.09.02-.09.02.13.01.25.06.38.08.44.16.92.33,1.43.52.06.12.13.24.18.36.75-.01,1.51.04,2.24,0,.11,0,.2,0,.31,0,.16,0,.32,0,.47,0,.42-.02.84,0,1.25,0-.01,0-.04,0-.04,0,.16,0,.32,0,.48,0h0c.78,0,1.55.01,2.33.01v-.03c.18,0,.34,0,.51,0,0,0-.02.03-.02.03.86,0,1.72,0,2.58,0h1.69c-.18-.07-.36-.12-.54-.19.24-.53.47-1.05.71-1.57.84.55,1.68,1.13,2.5,1.76h4.71c-.15-1.76-.79-4.1-2.45-6.64,1.81.79,3.69,1.68,5.53,2.66-1.33,1.97-2.34,3.46-2.72,3.98h8.9s.07-.08.11-.12c.06.04.12.08.17.12,1.25,0,2.5,0,3.75,0h-.01c.11,0,.22-.01.32-.01,0,0,.01.01.01.01.97,0,1.93-.01,2.9,0,0,0-.01-.03-.02-.04,2.02-.02,4.05-.03,6.07.04,1.5.05,3.01-.03,4.52,0h1.65c1.05,0,2.1.03,3.15.02-.02-.01-.04,0-.06-.02-.08-.05-.16-.09-.24-.14.28-.28.6-.57.9-.86-.02.57-.01.93-.02.98,0,0-.01,0-.02.02-.01,0-.03,0-.04,0h.26c.86-.01,1.71.02,2.55.01.49.02.99.05,1.48-.02.21-.11.49-.05.82,0,.22.03.44,0,.67,0,.86.07,1.76,0,2.64,0,1.06-.8,1.96-1.66,2.66-2.47.22.09.44.19.67.29-.85.78-1.65,1.53-2.33,2.18.17,0,.33,0,.49,0,.96.01,1.93,0,2.9,0,.44-.35.88-.72,1.33-1.1.56.26,1.13.56,1.71.85-.18.08-.36.16-.55.25h.27c.26,0,.51,0,.77,0,.67,0,1.33,0,2,0,.31,0,.62,0,.94,0h.25c.26,0,.52,0,.78,0h.48c1.09,0,2.18,0,3.27,0h.13c.3,0,.6,0,.91,0h1.4c.81,0,1.63,0,2.44,0h.38c.74,0,1.48,0,2.22,0h.68c.72,0,1.45,0,2.18,0h.38c.17,0,.33,0,.5,0h4.59c1.62,0,3.25.04,4.86,0h.25c.73-.72,1.25-1.89,1.52-2.49.91-2.01-.28-.08-.28-.08,0,0-.2.58-1.32,1.5.14-.86.32-1.78.55-2.73.13-.15.26-.27.39-.41,1.27.28,2.47.6,3.58.95-.23.26-.45.53-.69.81-1.17.87-2.25,1.74-3.23,2.45.39-.01.78.01,1.18,0h.03c.15-.15.41,0,.76,0h2.49c.81-.53,1.6-1.52,2.34-2.23,1.4.56,2.66,1.12,3.78,1.62.05.05.12.11.17.16.01.15.03.31.04.45h10.48c.16,0,.32,0,.48,0h0s.02,0,.02,0h0c.08,0,.17,0,.26,0h0c.05,0,.11,0,.16,0h0c1.06.01,2.12-.03,3.18,0h0c.18,0,.36,0,.54,0h0c1.04.03,2.08-.03,3.12,0,.56,0,1.13,0,1.7,0,.05,0,.09,0,.14,0,.65,0,1.3,0,1.95,0,1.65-.01,3.29.15,4.92.01.24,0,.49.02.73-.01h.03s0-.01,0-.01c.22.06.43.12.64.01h.08c.46,0,.91,0,1.37,0-.01.18.64,0,.64,0,.26,0,.51,0,.77,0h.18c.07,0,.13,0,.19,0,.27,0,.54,0,.81,0,.69-.01,1.38,0,2.07,0,.07.09.14.15.22,0,.37,0,.75,0,1.12,0,1.06.01,2.13.03,3.19,0,.31,0,.63,0,.94,0,.29.06.58.09.9,0h.25c.82-.03,1.64.02,2.46,0,0-.03.02-.06.03-.09.64-.27,1.03.09,1.03.09,0,0,.24-.12.51-.29-.07.09-.14.19-.2.29.88-.03,1.76,0,2.64,0h0c.41,0,.82,0,1.24,0,.2,0,.41,0,.61,0,.46,0,.93,0,1.39,0,.21-.03.41-.04.62-.04.02.01.04.03.06.04.15-.02.31-.03.47-.03h0s-.05.03-.05.03c.17-.03.35,0,.52,0,.32.02.64.03.95.01.32.01.63.02.95,0h0s.03,0,.03,0c.02-.02.04-.04.06-.06,1.08,0,2.17.1,3.26.06.11,0,.22,0,.33,0,.1-.07.18-.16.27-.25.11.08.25.18.35.25.7-.03,1.39,0,2.09,0h.88c-.03-.83-.17-2.34-.61-4.07.41-.33.61-.66-.19-.63-.1-.33-.18-.66-.3-1,.37-.24.76-.48,1.16-.71.56.37,1.13.76,1.69,1.17-.26,1.66-.36,3.99-.36,5.24.7,0,1.4,0,2.09,0,.1-.96.2-2.33.32-3.7.33.26.67.52,1,.79-.3,1.07-.53,2.07-.69,2.91h.24c.53,0,1.05,0,1.58,0,.32,0,.64,0,.96,0,.2-.16.39-.35.58-.55.02.02.05.04.07.07-.18.16-.37.34-.54.48.35,0,.7,0,1.05,0,.66,0,1.32,0,1.98,0,.15,0,.27-.03.38,0,.01,0,.03-.02.04-.03.09,0,.17-.01.23.03.25-.01.51,0,.76,0,1.03-.05,2.06.05,3.1,0,.01-.01.02-.04.03-.05.56,0,1.11-.02,1.67,0,0,0,0,.03,0,.05.52-.03,1.04.02,1.56,0h0c.35,0,.69,0,1.04,0h0s.06,0,.09,0c.06,0,.11,0,.17,0h0c.37-.01.74,0,1.11,0,0,0,0,0,0,0,.82-.03,1.64.01,2.46,0h0s.09,0,.13,0h0c.2,0,.39,0,.59,0h.28c.24-.03.47.03.7,0,.07-.14.14-.27.21-.4,1.16-.8,2.3-2.54,3.43-2.74,2.62-.8,3.71-1.68,3.71-1.68,0,0,.36-1-.62-.67-.69.23-1.82.5-3.14.75,1.76-3.02,3.22-5.39,3.63-6.21.09-.17.16-.33.22-.46v-.75h0c0-.37,0-.74,0-1.11.02-.52-.21-.41-1.13-.14-2.25.66-3.88,2.46-5.07,4.62.1-.37.21-.72.31-1.07,1.34-1.77,3.23-3.49,5.9-4.94v-1.87c-1.47.46-2.95,1.22-4.35,2.22.09-.14.19-.28.25-.42.7-1.55.16-.76-.13-.32,1.86-5.85,2.17-7.2.83-5.54,0,0-1.17,3.07-2.79,7.22-1.27.85-3.42,2.11-7,3.93.11-.85.23-1.58.37-2.06,1.03-3.75-.65-6.92-.65-6.92,0,0,.26,4.67-1.55,8.09-.27.5-.45,1.29-.57,2.2-.7.45-1.38.94-2.03,1.46-.87-.48-1.74-.9-2.6-1.23,2.32-2.73,4.09-4.25,4.09-4.25,0,0,4.84-2.75-3.78-.25-1.81.53-3.22,1.8-4.33,3.4-1.02-.18-1.99-.28-2.9-.32.16-1.48-.05-2.78-.31-3.75.67-.32,1.3-.71,1.8-1.22-.95-.6-1.6-1.02-2.54-1.62-.32,1.28-.6,2.36-.87,3.46.34-.09.64-.24.96-.37-.06.98-.2,2.2-.52,3.48-.91.01-1.74.08-2.46.17-2-.88-3.94-1.57-5.69-2.1-.26-.21-.48-.44-.77-.63-.15-.09-.31-.2-.47-.29.44-1.05-.05-.63-.4-.25-2.23-1.38-4.97-2.79-7.83-4.06.03-.15.07-.3.1-.44.22-.78.3-1.53.31-2.24,1.18.9,2.45,1.33,4.65,1.33.82.91,1.34,1.86,1.89,2.72-.27-.52-.54-1.08-.83-1.71,5.09-.95,9.95-1.85,15.36-2.86-.15,1.7-.28,3.18-.43,4.86.75-1,1.17-2.31,1.03-4.02-.5-4.5-2.25-12.01-2.25-12.01,0,0-1.25-1.25,1-5.76,2.25-4.5-.75-17.01-.75-17.01l4.5-3.5s-5.26-3-10.76.5c-2.42-2.51-4.64-4.31-6.79-6.41,1.5,2.16,3.01,4.31,4.54,6.45,2.76,3.88,2.59,7.08-.91,10.4-.98.93-1.22,2.7-1.64,4.14-1.1,3.79-1.91,7.68-3.28,11.36-.38,1.03-2.67,2.38-3.45,2.06-3.5-1.45-7.3-2.93-9.87-5.52-1.07-1.08.65-4.94,1.01-7.04-1.95-1.04-4.26-2.44-6.72-3.51-1.55-.68-3.38-1.35-4.99-1.18-5.54.59-6,.51-5.84-5.14.11-3.79-1.45-5.49-4.87-6.9-4.22-1.73-8.01-4.49-12.09-6.6-1.56-.81-3.51-1.65-5.14-1.43-4.86.66-6.41-.59-5.6-5.47.39-2.35.97-4.68,1.6-6.98,1.46-5.35,2.03-5.8,7.55-4.45,3.36.83,5.78-.26,7.12-3.05,1.12-2.35,1.69-5.05,2.02-7.65.58-4.56,2.8-6.31,7.3-5.27,4.95,1.15,6.47,3.89,4.97,9-.67,2.28-1.4,4.53-2.1,6.8.46.14.92.27,1.38.41,5.87-4.88,14.62-2.83,18.64,3.76.33.55.68,1.08,1.02,1.63-1.01-2.28-2.04-4.87-3.12-7.95-4-8.51-18.77-25.77-37.28-29.02-10.51,0-28.77.75-45.29-1.5-16.52-2.25-35.53-6.5-42.29,12.01-4,10.76.25,31.53.25,35.78s-.5,10.01-2.25,15.26c-1.75,5.25-2.75,6.51-.75,9.76,0,7.51.5,17.51.5,17.51,0,0-.42,1.28-.74,3.68-6.68-1.91-12.18-2.09-12.18-2.09,0,0,5.52.73,12.05,3.28-.14,1.35-.24,2.94-.23,4.83,2.88.52,6.53-.72,9.09,1.04-.44.47-.85.95-1.28,1.43-6.24-2.28-13.59-4.12-18.13-4.19.46-2.97.34-3.47-.51-2.14,0,0-.27.82-.69,2.17-.34.02-.67.06-.96.11,0,0,.32.06.87.17-.05.14-.08.26-.13.41-.87-.16-1.38-.23-1.38-.23,0,0,.51.14,1.33.39-.24.75-.51,1.63-.81,2.59-8.25-5.16-17.86-6.42-17.86-6.42,0,0,4.56,1.09,9.92,3.75.08.51.29,1.99.25,3.73-1.14-1.19-2.56-2.42-4.38-3.67-2.31-1.59-4-2.74-6.46-3.73.04.51-.07,1.02,0,1.52.01.12.06.22,0,.3,3.11,1.63,5.88,3.68,8.28,6.27-2.33-.8-4.53-1.37-6.38-1.59-.6-.23-1.21-.46-1.9-.69.03.55-.03,1.1,0,1.64ZM373.15,218.04c2.5.75,2,5.26.75,3.75,0,0-1.5-1.25-4.25-3-1.25-.25-.1-1.83,3.5-.75ZM205.66,244.74s.04.04.05.07c-.01.05-.03.11-.05.16-.3-.23-.62-.45-.95-.67.31.14.63.29.95.44ZM303.8,246.22c-.16-.03-.31-.06-.46-.09h0c1.05-.76,2.25-1.49,3.6-2.2,1.86,1.42,3.4,2.95,4.39,4.56-.25.14-.49.27-.75.41-1.41-.87-2.83-1.51-4.22-1.98.26-.18.44-.29.44-.29,0,0,4.38-2.63-3.01-.42ZM371.31,248.38c-.34.14-.69.29-1.04.45-1.46-.84-2.92-1.48-4.34-1.91.54-1.03,1.01-1.94,1.37-2.65,1.66,1.29,3.05,2.67,4.01,4.11ZM344.8,233.73c1.27.39,4.7,1.48,8.75,3.13-.01,1.49-.22,4.72-1.56,7.26-.12.22-.21.49-.3.78-.36.41-.73.81-1.07,1.22-.3-.11-.57-.21-.83-.3-.28-1.08-.63-1.76-.63-1.76,0,0,.02.61,0,1.54-.81-.28-1.3-.44-1.3-.44,0,0,.49.21,1.3.58,0,.45-.02.95-.05,1.51-.74.41-1.72.91-2.98,1.51-.17.02-.38.05-.68.12-.47.11-1.1.25-1.84.41,0-.08.01-.17.02-.25.2-.49.16-.6.04-.56.1-1.6.23-3.3.39-4.89.79-.26,1.61-.51,2.48-.74,0,0-.94.04-2.42.24.19-1.76.41-3.32.68-4.31.54-1.98.33-3.78.01-5.05ZM335.23,243.57h.08c-.08.04-.14.08-.22.12.04-.06.08-.12.13-.18,0,.02.01.04.02.06ZM331.53,238.79c1.07.28,1.85.81,2.44,1.65-1.01.98-1.97,1.99-2.87,3.01-.03-.01-.06-.02-.09-.03-.54-.32-1.09-.63-1.64-.92.41-.28.65-.42.65-.42,0,0,4.35-2.48-2.62-.57-.16-.08-.32-.15-.48-.22,1.31-.86,2.85-1.69,4.61-2.49ZM340.58,247.69c.53-.21.98-.38,1.36-.52.03.49.07.97.12,1.45-.49-.33-.98-.63-1.48-.93ZM326.27,248.79c-.99-.3-1.92-.52-2.77-.66,1.54-1.92,3.01-3.35,4.17-4.32.66.43,1.31.88,1.96,1.36-.97,1.15-1.88,2.22-2.69,3.16-.22.15-.45.31-.67.47ZM337.47,244.02c-.1.22-.2.46-.3.7-.46.16-.93.31-1.4.5h0c.6-.41,1.17-.81,1.7-1.19ZM338.18,245.96c1.11-.55,2.33-1.09,3.66-1.59,0,.86.02,1.77.08,2.67-.45.11-1.01.26-1.67.44-.06-.03-.11-.06-.16-.09.82-.48,1.72-1.21-1.3-.72-.24-.13-.48-.26-.72-.38.04-.11.07-.22.11-.33ZM349.99,246.75c-.04-.24-.08-.47-.13-.68.19.08.38.18.59.27-.07.08-.12.17-.19.25-.08.05-.17.11-.26.16ZM356.57,248.57c-1-.45-1.96-.86-2.84-1.23.1-.18.2-.35.3-.53,1.05.18,2.07.37,3.02.6-.16.38-.31.76-.47,1.16ZM354.19,246.52c1.21-2.13,2.31-4.06,3.13-5.49-.19,1.53-.11,3.33.05,5-1.42.12-2.51.33-3.18.49ZM351.31,251.64s0,.05,0,.07c-.02.02-.04.03-.07.04.02-.04.04-.08.06-.11ZM353.95,237.02c1.21.5,2.47,1.04,3.73,1.63-1.08,1.07-2.19,2.19-3.3,3.35.35-2.11-.07-3.92-.43-4.98ZM358.92,247.96c.27.08.57.15.83.24-.28.08-.56.17-.86.26.01-.16.02-.33.03-.5ZM364.07,252.49c-.26-.16-.53-.31-.79-.46.05-.18.09-.34.14-.49.29-.51.56-1.01.84-1.51.68.33,1.31.66,1.91,1-.71.45-1.41.93-2.09,1.46ZM360.7,250.58c-.63-.33-1.25-.65-1.87-.97,0,0,0-.02,0-.04.61-.36,1.26-.7,1.93-1.02.39.14.76.29,1.13.44-.41.53-.81,1.06-1.2,1.59ZM356.23,249.39c-.98.38-1.99.82-3.01,1.32.07-.95.16-1.92.25-2.87.87.45,1.81.95,2.79,1.5,0,.02-.01.03-.02.05ZM355.1,252.06c-.32.76-.66,1.53-1,2.3-.38-.13-.75-.27-1.11-.41,0-.08.01-.17.02-.26.63-.51,1.34-1.06,2.1-1.63ZM346.91,251.65c-.33-.07-.66-.1-.95-.1.62-.47,1.21-.94,1.75-1.4-.27.48-.54.98-.8,1.5ZM337.16,253.19c-.37-.17-.74-.34-1.11-.52.04-.12.08-.24.11-.36.19-.02.4-.03.58-.04.19.27.35.56.53.84-.04.03-.08.05-.12.08ZM323.59,250.89c-.63-.2-1.21-.37-1.74-.52.4-.59.8-1.15,1.19-1.67.61.24,1.36.53,2.19.87-.58.45-1.13.88-1.64,1.32ZM309.26,242.8c1.03-.46,2.15-.91,3.34-1.35-.22.49-.76,1.87-.86,3.68-.65-.81-1.48-1.59-2.48-2.33ZM313.98,248.72c1.27-.96,2.32-1.86,3.14-2.69-1.03,1.47-1.82,3.22-2.33,5.2-.12-.76-.29-1.44-.53-1.9-.1-.2-.18-.41-.27-.62ZM279.58,246.58c.18.1.36.2.54.31-.16.03-.31.06-.48.08-.02-.13-.05-.26-.07-.39ZM277.57,245.68c.01-.06.01-.12.02-.17.04.02.09.04.14.07-.05.04-.1.07-.16.1ZM274.84,242.13c.62-.42,1.19-.83,1.72-1.24.01.06.03.12.04.19-.14.36-.29.72-.47,1.06-.07.13-.11.3-.16.44-.38-.15-.76-.3-1.14-.45ZM277.12,251.13c.04-.61.08-1.26.13-1.93.64-.11,1.25-.22,1.81-.35.27.7.47,1.21.52,1.41.23.99.55-.48.55-.48,0,0-.08-.44-.21-1.15.74-.2,1.42-.41,2-.63.41.26.81.53,1.19.8-.46,1.11-.89,2.15-1.27,3.07-1.68-.44-3.28-.66-4.72-.74ZM273.1,243.94c.78.23,1.57.48,2.38.75-.08.75-.11,1.55-.1,2.38-.07.04-.14.09-.22.13-.6-1.18-1.3-2.26-2.06-3.26ZM272.73,241.34c1.04-.6,2.18-1.19,3.44-1.78-.91.52-2.02,1.12-3.35,1.81-.03-.01-.06-.03-.09-.03ZM290.88,248.04c.54.61,1.06,1.26,1.54,1.93-.6-.53-1.28-1.03-2.04-1.49.16-.15.33-.29.5-.44ZM290.46,251.59c-.23.05-.46.1-.71.16-.16-.29-.34-.57-.54-.85.04-.04.06-.06.09-.09.4.26.78.52,1.15.78ZM287.34,252.46c-.12.04-.24.08-.36.12.05-.08.1-.16.15-.24.02-.01.05-.03.07-.04.05.05.09.11.14.16ZM264.42,250c-.27.09-.54.18-.82.29h-.01c.22-.48.48-.96.79-1.45,2.13-1.41,4.36-2.82,6.35-4.04.69.95,1.27,1.89,1.77,2.8-2.36.21-4.99.9-8.08,2.41ZM260.76,246.8c1.53-2.17,3.07-3.81,4.39-4.98.4.09.86.2,1.36.32.11.1.19.22.29.33-.34.25-.71.5-1.09.77-.23.15-.46.31-.68.47-.33.23-.65.45-1.01.69-1.18.79-2.25,1.6-3.26,2.41ZM259.58,240.74c.45-.24.94-.42,1.47-.49-.38.11-.87.27-1.47.49ZM259.03,240.94c-.45.17-.94.37-1.5.6-.2.09-.38.19-.57.29.55-.52,1.15-1.05,1.83-1.57.09.24.18.48.25.69ZM265.7,235.19c1.61.32,4.08.89,6.93,1.82-.13.26-.29.68-.29.68,0,0-.26.67-2.65,2.6-.37-.33-.74-.66-1.11-.96.07-.04.12-.06.12-.06,0,0,3.8-2.17-1.4-.89-.06-.04-.11-.08-.17-.12-.37-.69-.74-1.41-1.08-2.19-.02-.05-.05-.11-.07-.16.19-.09.36-.18.56-.27,0,0-.23.04-.62.12-.07-.18-.15-.35-.23-.56ZM276.39,238.37c-.02.22-.03.44-.02.67-1.25.24-3.17.71-5.3,1.5.85-1.06,1.41-2,1.58-2.8.07-.35.11-.55.12-.69,1.16.38,2.38.81,3.62,1.32ZM283.02,241.63c-.49.49-1.44,1.3-3.23,2.56-.14-.05-.27-.09-.4-.13-.07-.04-.14-.06-.22-.1-.22-1.47-.42-3.04-.56-4.46,0-.06,0-.12.01-.18,1.46.67,2.95,1.44,4.4,2.31ZM285.61,243.33c-.44.82-.85,1.64-1.21,2.47-1.02-.39-2.08-.77-3.16-1.13,1.01-1.01,1.78-1.94,2.23-2.75.72.45,1.43.92,2.14,1.42ZM288.24,245.41c.38.34.76.68,1.12,1.04-.44.27-.88.56-1.31.86-.13-.06-.26-.12-.39-.18.19-.58.38-1.16.58-1.72ZM289.02,243.18c1.08-3.01,2.09-5.62,2.65-7.19,2.61,1.01,5.61,2.28,8.5,3.77-.85,1.06-1.65,2.13-2.37,3.22-1.47.37-3.81,1.09-6.29,2.3-.72-.7-1.56-1.4-2.5-2.1ZM304.61,242.3c.34.22.68.44,1.01.67-.47.16-.93.33-1.41.52.13-.4.27-.8.4-1.19ZM294.23,248.47c-.42-.63-.92-1.27-1.5-1.93,1.31-.97,2.83-1.93,4.59-2.86-.51.81-1,1.58-1.47,2.31-1.58.23-2.54.53-2.54.53.69.1,1.34.22,1.98.33-.37.57-.73,1.12-1.06,1.62ZM291.47,253.84c-.14.02-.3.05-.48.08-.08-.03-.16-.06-.23-.09-.15-.39-.33-.8-.54-1.22.37-.16.7-.3,1.01-.44.14.11.28.23.42.35-.07.37-.13.86-.18,1.33ZM274.09,251.15c-.23.01-.46.03-.67.05.18-.15.36-.3.53-.45.05.13.1.27.14.4ZM258.39,253.22c.13-.11.27-.22.4-.33,0,.02,0,.05-.01.07-.13.09-.26.17-.39.27ZM255.43,251.76c-.41.1-.88.23-1.4.37,1.76-5.42,4.56-8.45,6.13-9.81-1.8,2.31-2.66,5.29-3.08,7.73-.61.6-1.16,1.17-1.65,1.71ZM243.06,249.78c.03-.43.05-.89.09-1.37.81.72,1.49,1.48,2.03,2.28-.09-.01-.19-.02-.28-.03-.62-.32-1.23-.62-1.84-.87ZM241.73,249.25c-.48-.17-.95-.32-1.42-.46.84-.56,1.88-1.49-2.09-.51-.4-.08-.79-.13-1.17-.18.98-.62,2.06-1.22,3.27-1.81.41.26.8.52,1.17.79.06.75.15,1.48.24,2.17ZM234.27,246.13c.47-.8.94-1.59,1.4-2.35,1.09.5,2.14,1.04,3.14,1.6-1.2.38-2.46.84-3.73,1.43-.26-.23-.53-.46-.8-.68ZM248.14,253.02s.08.02.13.03c0,.05,0,.09,0,.14-.05-.05-.08-.11-.13-.17ZM227.93,248.65c-2.5-1.15-5.13-2.19-7.61-3.01.27-.6.51-1.12.67-1.5,1.02-1.28,1.94-2.13,2.52-2.6,2.27,1.18,4.67,2.64,6.93,4.43-.58.86-1.15,1.68-1.68,2.48-.3.07-.57.14-.82.21ZM215.48,244.31c-.22-.04-.44-.1-.65-.14.03-.12.06-.26.08-.38.19.17.38.34.57.52ZM215.4,247.61c-.38-.22-.77-.44-1.17-.66.15-.65.29-1.27.42-1.88.43.16.89.32,1.39.51-.27.65-.49,1.33-.64,2.02ZM215.03,250.05c-.48-.21-.96-.42-1.44-.61.03-.12.07-.24.1-.36.46.29.9.6,1.34.9,0,.02,0,.05,0,.07ZM211.4,248.59c-.45-.16-.89-.32-1.32-.46-.12-.45-.27-.93-.47-1.44.68.36,1.35.73,2.02,1.12-.08.26-.15.52-.23.78ZM211.14,249.51c-.22.75-.42,1.5-.63,2.25-.05-.13-.09-.26-.14-.39.06-.48.08-1.26-.07-2.25.28.13.56.26.85.4ZM210.05,253.07c-.92-.06-1.78-.07-2.57-.05-.07-1.17-.13-2.42-.16-3.63.32.4.62.8.88,1.22l1.85,2.47ZM213.25,242.38c-.15.5-.31,1.01-.47,1.54-.58-.05-1.13-.06-1.6-.02,0,0,.54.17,1.46.48-.15.49-.3,1.01-.45,1.52-1.32-.66-2.67-1.3-4.03-1.88-.2-.29-.4-.59-.63-.89-.04-2.56-1.1-4.58-1.51-5.25,2.37,1.18,4.88,2.65,7.23,4.5ZM215.9,238.31c1.5.51,3.51,1.27,5.77,2.33-.4.16-.84.33-1.33.53-1.17.48-2.09,1.19-2.82,2.02-.71-.6-1.43-1.17-2.18-1.7.22-1.22.41-2.28.56-3.18ZM224.52,239.72c-.31.05-.74.17-1.31.36-2.87-1.05-5.45-1.71-7.26-2.09.02-.14.05-.28.07-.41,1.92.41,5,1.13,8.5,2.14ZM232.99,242.62c-.46.54-.86,1.1-1.28,1.65-2.31-1.51-4.75-2.71-7.07-3.64.25-.23.51-.51.56-.7,2.51.75,5.2,1.65,7.79,2.69ZM236.67,242.14c.13-.21.26-.43.39-.64.06.11.13.2.19.31h2.29s-.52-.47-1.22-1.31c1.09.89,2.12,1.87,3.08,2.91-.02.3-.03.6-.03.91-.37-.22-.75-.43-1.17-.63-1.07-.52-2.27-1.05-3.54-1.56ZM229.76,178.39c-2.19-11.07-3.07-21.68,3.86-31.42.51,1.42.59,3.16-.22,3.85-3.8,3.25-2.9,6.36-.3,9.72,4.07,5.25,2.67,13.37-3.34,17.85ZM237.54,220.3c1.5-3.75,4.25-14.51,9.76-23.02,1-1.75.75.5-.25,5.5-1,5-2.25,6.26.75,10.76,2.2,3.3,7.59,17.52,10.34,24.95-4.44,2.27-9.1,6.21-9.77,12.77-.26-.06-.51-.12-.76-.17.03-1.4-.31-3.89-2.34-6.84.34-.12.63-.25.98-.36,0,0-.44.03-1.16.12-.39-.55-.83-1.11-1.36-1.68.17-1.34.38-2.55.61-3.42,1.04-3.75-.65-6.92-.65-6.92,0,0,.26,4.67-1.55,8.09-.08.15-.14.33-.21.5-.84-.75-1.78-1.5-2.88-2.26.89-1.41,1.54-2.46,1.77-2.93,1.29-2.59-.39-.58-.39-.58-.87.86-1.78,1.76-2.69,2.68-.68-.42-1.36-.82-2.05-1.19-1.31-3.45.38-12.34,1.85-16ZM297.98,158.97c-1.8,2.77-4.03,5.26-6.19,8.04.16.27.59.98,1,1.69-6.01,4.05-6.16,4.6-2.13,7.16,1.05-.92,2.1-1.83,3.15-2.75.37.16.75.31,1.12.47-.3,1.36-.17,3.11-.97,4.03-2.35,2.66-5.12,4.96-7.64,7.48-1.07,1.07-2.15,2.23-2.88,3.53-1.95,3.51-4.71,4.57-8.73,3.59.22-1.74.39-3.12.58-4.61-1.32-.26-2.4-.48-2.54-.51,0-3.95.16-7.32-.11-10.66-.07-.83-1.46-1.96-2.42-2.16-.55-.12-2.07,1.33-2.07,2.08,0,2.98.61,5.95.62,8.93,0,1.24-.91,2.48-1.41,3.72-1.15-.84-3.16-1.57-3.27-2.53-.25-2.2.42-4.51.72-6.77-.35.09-.69.19-1.04.27-1.16-2.05-2.32-4.1-3.44-6.09-1.37-1.45-3.24-2.72-4.09-4.49-1.57-3.25-2.26-3.67-6.09-1.86,1.6.98,2.34,2.64,4.9,10.82-1.83,1.08-3.63,2.16-6.29,3.73.81-2.23,1.35-3.72,1.91-5.28-1.2.53-2.33,1.03-3.45,1.53-.28-.27-.56-.55-.84-.83,1.33-1.71,2.65-3.43,3.96-5.12-1.54-1.71-3.89-3.25-4.52-5.31-.65-2.11.38-4.74.61-6.6-1.72-1.05-3.1-1.89-4.48-2.74,1.05-1.27,2.09-2.56,3.17-3.8,1.16-1.34,3.11-2.49,3.41-3.98,1.54-7.66,7.47-7.83,13.33-8.5,2.15-.25,4.22-1.08,7.15-1.86,8.65,1.17,18.34,2.48,27.95,3.78-1.61,3.18-2.82,5.56-4.21,8.3,1.46.36,2.02.47,2.57.63,5.13,1.51,5.54,2.3,2.69,6.67ZM307.35,230.8c-.02.35-.04.67-.06,1.01-.21.21-.41.47-.41.47-1.79,1.89-3.73,3.93-5.55,6.07-3.04-1.42-6.28-2.69-9.25-3.6v-.03c.71-2.68-.51-.54-.51-.54-.08.12-.17.24-.25.35-2.88-.84-5.45-1.3-7.22-1.15,0,0,2.73.79,6.48,2.2-1.34,1.89-2.7,3.89-3.95,5.97-2.26-1.38-4.63-2.5-6.96-3.37.48-.53.85-1.04,1.06-1.5.91-2.01-.28-.08-.28-.08,0,0-.23.37-1.59,1.29-.08-.02-.16-.06-.25-.08-.03-.53-.1-1.01-.19-1.45,0-.08,0-.17,0-.25.17-3.81-2.2-6.79-2.2-6.79,0,0,1.22,4.33.36,7.83-4.59-1.38-8.68-1.95-10.97-2.17-1.74-4.73-4.16-15.15-5.08-20.69-.5-3,2.5-7.01,2.25-11.26-.25-4.25-1.75-8.5,1.25-6.25,3,2.25,10.51,7.76,23.77,6.5,13.26-1.25,21.52-4.75,22.27,6.26.75,11.01-2.5,17.02-2.75,21.27ZM316.1,240.81h2s-.37-1.07-.95-2.29c1.52.57,3.44,1.38,5.53,2.43-1.54.93-2.99,2.08-4.26,3.48.12-.2.24-.4.32-.59.82-2.03-.29-.08-.29-.08,0,0-.54.91-5,3.53-.78-2.6-.78-5.23-.75-5.88.13-.05.25-.1.37-.14,0,0-.15.02-.37.04v-.07s-.02.05-.03.07c-.69.08-2.29.31-4.34.83-.92-.6-1.95-1.2-3.04-1.8.68-1.92,1.35-3.68,1.89-5.11,0,.73.01,1.44.08,2.09,2.97-1.75,7.14-.1,8.85,3.48ZM323.87,239.09c1.48-.23,2.76-.4,3.88-.48-1.19.41-2.41.91-3.62,1.53-2.81-1.06-5.38-1.75-7.26-2.17-.75-1.45-1.76-2.91-2.77-2.91,1.75-3.75,2.5-10.26,2.5-14.51s2.75-3,4.25,4c1.5,7.01,2.5,13.51,2.5,13.51l.51,1.03ZM354.88,229.05c2.07,2.28,3.32,3.93,4.43,5.11-.14.99-.36,2.06-.74,3.1-5.23-2.19-10.59-3.78-13.82-3.7-.28-1.04-.61-1.7-.61-1.7,0,0,.26,4.67-1.55,8.1-.44.84-.66,2.1-.73,3.52-.96.19-2.02.44-3.14.76.18-.59.33-1.1.47-1.55,1.43-1.19,2.45-2.27,2.87-3.19.91-2.01-.28-.08-.28-.08,0,0-.3.46-2.16,1.67.27-1.23.04-1.25-.71-.32,0,0-.17.38-.46,1.05-.59.35-1.27.75-2.08,1.19-.09-.17-.19-.38-.32-.62,2.93-4.01,5.54-7.36,6.14-8.3,1.61-2.51-.31-.6-.31-.6-2.37,1.99-4.96,4.17-7.36,6.46-.41-.58-.89-1.2-1.44-1.84,1.07-.44,2.22-.87,3.45-1.28,0,0-1.68.07-4.1.54-.02-.02-.03-.04-.04-.05-1.75-6.75-3.26-8.51-4-11.51-.75-3,2.5-5.76,1.5-8.76-1-3-1.5-4-1.5-4,0,0,2.25-1.75,7.25-.5,5,1.25,5.51.5,8.76-2,2-.75,5.25,2,5.51,5,.25,3,0,8.01,5,13.51ZM359.74,239.64c1.27.64,2.51,1.31,3.71,2.03-.61-.11-.99-.16-.99-.16,0,0,1.1.46,2.83,1.31.37.25.73.5,1.09.75-.8.87-1.63,1.83-2.44,2.83-1.77-.37-3.42-.48-4.88-.46.02-.26.04-.53.06-.79,1.11-3.62,1.24-4.55.35-3.53.08-.69.17-1.36.27-1.98ZM383.33,250.05c.16-.23.32-.46.49-.68.15.07.29.15.43.22-.13.24-.29.52-.49.82-.14-.12-.28-.25-.42-.36ZM384.83,251.33c-.25-.23-.51-.44-.77-.66.16-.34.3-.66.42-.95.44.23.86.47,1.25.7-.31.3-.61.61-.91.91ZM392.63,251.53c-.03-.08-.06-.16-.09-.24.09-1.28.2-2.63.32-3.91,1.94-1.2,3.66-2.36,5.11-3.44-1.53,1.93-2.8,4.24-3.67,6.86-.54.18-1.1.43-1.67.73ZM385.72,253.96c.74-.59,1.5-1.32,2.26-2.09h0c-.68,1-1.35,1.94-2,2.67-.08-.1-.17-.31-.26-.58ZM380.59,248.1c-.17-.11-.33-.22-.5-.32.19.07.37.14.55.2-.02.04-.03.07-.05.11ZM372.95,247.73c-.13-.31-.28-.61-.44-.92.36.23.72.46,1.08.69-.21.07-.42.15-.64.23ZM372.08,249.81c.04.1.09.19.13.29-.09-.07-.18-.12-.26-.19.04-.03.09-.07.14-.1ZM362.81,253.53s.02-.06.03-.1c.01,0,.03.02.04.03-.02.02-.05.05-.07.07ZM356.71,253.76c.27-1.09.51-2.62.73-3.28,0-.02.01-.04.02-.06.11-.07.22-.14.33-.21.05.03.11.07.16.1.1.62.17,1.07.17,1.26,0,1,.65-.42.65-.42,0,0,0-.14.01-.35.4.24.81.49,1.22.75-.47.65-.93,1.28-1.36,1.9-.29-.02-.89.07-1.92.32ZM352.95,254.55h0c.21,0,.42,0,.62,0-.21,0-.41,0-.62,0ZM346.4,252.64c-.2-.36-.41-.68-.62-.95.02-.02.04-.03.06-.05.13.11.4.32.77.58-.07.15-.14.28-.22.42ZM341.29,254.55s.03-.02.04-.03c0,0,.01.02.01.02-.01,0-.03,0-.05.01ZM335.5,254.22s.02-.06.04-.09c.02.01.04.02.06.03-.04.02-.07.04-.1.06ZM331.74,253.96c.36-.38.73-.77,1.09-1.12.22.1.43.2.65.3-.2.45-.39.9-.59,1.35-.38-.18-.76-.36-1.14-.54ZM321.64,252.58c-.44.11-.88.21-1.31.29.43-.77.87-1.48,1.32-2.16.44.18.92.39,1.44.61-.52.44-1,.86-1.44,1.26ZM302.54,250.26c.45-.47.87-.89,1.27-1.26,1.06.37,2.01.74,2.87,1.13-2.07-.11-3.57.05-4.14.13ZM271.6,252.75c.26-.22.52-.44.77-.66.74.13,1.46.26,2.14.42.08.3.15.58.21.86-.27.11-.54.19-.82.31-.79-.33-1.55-.64-2.31-.92ZM268.13,251.54c.08-.1.16-.2.24-.3.56-.08,1.1-.18,1.61-.28-.35.3-.66.58-.98.87-.29-.1-.58-.19-.86-.28ZM262.52,254.46c.02-.38.06-.8.14-1.24,1.3-.68,2.63-1.25,3.94-1.6.12.04.22.08.33.13-.94.7-2.35,1.6-4.41,2.71ZM256.72,254.51c.05-.14.12-.27.17-.41l.05.24c-.07.05-.15.12-.22.18ZM245.47,253.47c-.94-.09-1.94-.16-2.93-.23.18-.21.38-.65.38-.65,0,0,0-.12.01-.32,1.04.4,1.91.8,2.63,1.21-.03,0-.06,0-.09,0ZM240.08,253.12c-.27-.53-.58-1.07-.94-1.64.86.1,1.66.2,2.44.3.19.07.37.13.55.2.07.49.13.86.13,1.02,0,.1.01.16.02.22-.74-.04-1.48-.08-2.21-.1ZM236.93,253.04c-.36,0-.7-.01-1.03-.02-.07-.06-.14-.14-.21-.19-.11-.07-.24-.15-.35-.22.28-.27.55-.53.81-.77.27.38.53.78.78,1.19ZM220.86,251.64c-.65-.76-1.42-1.48-2.35-2.12.18-.39.35-.75.52-1.12.7,1.01,1.3,2.1,1.83,3.23ZM212.45,253.37c.29-.92.56-1.84.83-2.78.42.23.85.46,1.28.71-.49.74-.92,1.48-1.35,2.21-.25-.05-.5-.1-.75-.14ZM197.43,242.63c2.66,1.14,5,2.44,6.93,3.92-1.11-.24-1.78-.35-1.78-.35,0,0,.85.23,2.24.71.11.09.21.18.32.28-.09,1.02-.01,2.22.17,3.46-2.15-3.52-4.95-6.16-7.88-8.02Z"/>
  </g>
  <g>
    <path class="st3" d="M194.16,424.98h15.18v41.47h26.53v13.3h-41.71v-54.77Z"/>
    <path class="st3" d="M243.69,437.42h14.87v42.33h-14.87v-42.33ZM253.23,419.35l13.85,4.46-11.5,10.02h-10.49l8.14-14.48Z"/>
    <path class="st3" d="M268.72,437.42h14.87v5.95c2.74-3.52,6.65-6.89,12.68-6.89,9,0,14.4,5.95,14.4,15.57v27.7h-14.87v-22.93c0-4.62-2.43-7.12-5.95-7.12s-6.26,2.5-6.26,7.12v22.93h-14.87v-42.33Z"/>
    <path class="st3" d="M318.49,458.79v-.16c0-12.36,8.84-22.14,21.36-22.14,14.63,0,21.36,10.72,21.36,23.16,0,.94,0,2.03-.08,3.05h-28.33c1.17,4.62,4.54,6.96,9.16,6.96,3.52,0,6.34-1.33,9.39-4.3l8.22,6.81c-4.07,5.16-9.94,8.61-18.39,8.61-13.3,0-22.69-8.84-22.69-21.99ZM347.28,455.11c-.55-4.7-3.29-7.67-7.36-7.67s-6.57,3.05-7.36,7.67h14.71Z"/>
    <path class="st3" d="M367.31,467.63v-.16c0-8.76,6.65-13.3,16.59-13.3,3.91,0,7.75.78,10.17,1.64v-.7c0-4.38-2.74-6.89-8.45-6.89-4.46,0-7.9.86-11.66,2.35l-3.05-10.48c4.77-1.96,9.86-3.29,17.14-3.29s12.75,1.8,16.12,5.17c3.21,3.13,4.54,7.51,4.54,13.46v24.33h-14.71v-4.38c-2.9,3.21-6.89,5.32-12.44,5.32-8.06,0-14.24-4.62-14.24-13.07ZM394.23,464.42v-1.96c-1.49-.63-3.6-1.09-5.79-1.09-4.3,0-6.81,2.11-6.81,5.24v.16c0,2.9,2.19,4.62,5.24,4.62,4.3,0,7.36-2.74,7.36-6.96Z"/>
    <path class="st3" d="M72.84,506.95h16.98l12.44,34.66,12.44-34.66h16.67l-22.22,55.16h-14.08l-22.22-55.16Z"/>
    <path class="st3" d="M130.11,540.75v-.16c0-12.36,8.84-22.14,21.36-22.14,14.63,0,21.36,10.72,21.36,23.16,0,.94,0,2.03-.08,3.05h-28.33c1.17,4.62,4.54,6.96,9.15,6.96,3.52,0,6.34-1.33,9.39-4.3l8.22,6.81c-4.07,5.16-9.94,8.61-18.39,8.61-13.3,0-22.69-8.84-22.69-21.99ZM158.91,537.07c-.55-4.7-3.29-7.67-7.35-7.67s-6.57,3.05-7.36,7.67h14.71Z"/>
    <path class="st3" d="M183.63,548.57v-17.21h-5.01v-11.97h5.01v-10.72h14.87v10.72h9.86v11.97h-9.86v14.32c0,2.97,1.33,4.23,4.07,4.23,1.96,0,3.83-.55,5.63-1.41v11.66c-2.66,1.49-6.18,2.43-10.33,2.43-8.92,0-14.24-3.91-14.24-14.01Z"/>
    <path class="st3" d="M213.76,540.75v-.16c0-12.36,8.84-22.14,21.36-22.14,14.63,0,21.36,10.72,21.36,23.16,0,.94,0,2.03-.08,3.05h-28.33c1.17,4.62,4.54,6.96,9.15,6.96,3.52,0,6.34-1.33,9.39-4.3l8.22,6.81c-4.07,5.16-9.94,8.61-18.39,8.61-13.3,0-22.69-8.84-22.69-21.99ZM242.55,537.07c-.55-4.7-3.29-7.67-7.35-7.67s-6.57,3.05-7.36,7.67h14.71Z"/>
    <path class="st3" d="M264.7,519.39h14.87v8.53c2.43-5.79,6.34-9.55,13.38-9.23v15.65h-1.25c-7.75,0-12.13,4.46-12.13,14.24v13.15h-14.87v-42.33Z"/>
    <path class="st3" d="M300.06,504.6h15.49v10.95h-15.49v-10.95ZM300.38,519.39h14.87v42.33h-14.87v-42.33Z"/>
    <path class="st3" d="M325.41,519.39h14.87v5.95c2.74-3.52,6.65-6.89,12.68-6.89,9,0,14.4,5.95,14.4,15.57v27.7h-14.87v-22.93c0-4.62-2.43-7.12-5.95-7.12s-6.26,2.5-6.26,7.12v22.93h-14.87v-42.33Z"/>
    <path class="st3" d="M374.78,549.59v-.16c0-8.76,6.65-13.3,16.59-13.3,3.91,0,7.75.78,10.17,1.64v-.7c0-4.38-2.74-6.89-8.45-6.89-4.46,0-7.9.86-11.66,2.35l-3.05-10.48c4.77-1.96,9.86-3.29,17.14-3.29s12.75,1.8,16.12,5.17c3.21,3.13,4.54,7.51,4.54,13.46v24.33h-14.71v-4.38c-2.9,3.21-6.89,5.32-12.44,5.32-8.06,0-14.24-4.62-14.24-13.07ZM401.7,546.38v-1.96c-1.49-.63-3.6-1.09-5.79-1.09-4.3,0-6.81,2.11-6.81,5.24v.16c0,2.9,2.19,4.62,5.24,4.62,4.3,0,7.36-2.74,7.36-6.96Z"/>
    <path class="st3" d="M425.64,519.39h14.87v8.53c2.43-5.79,6.34-9.55,13.38-9.23v15.65h-1.25c-7.75,0-12.13,4.46-12.13,14.24v13.15h-14.87v-42.33Z"/>
    <path class="st3" d="M461.01,504.6h15.49v10.95h-15.49v-10.95ZM461.32,519.39h14.87v42.33h-14.87v-42.33Z"/>
    <path class="st3" d="M484.25,549.59v-.16c0-8.76,6.65-13.3,16.59-13.3,3.91,0,7.75.78,10.17,1.64v-.7c0-4.38-2.74-6.89-8.45-6.89-4.46,0-7.9.86-11.66,2.35l-3.05-10.48c4.77-1.96,9.86-3.29,17.14-3.29s12.75,1.8,16.12,5.17c3.21,3.13,4.54,7.51,4.54,13.46v24.33h-14.71v-4.38c-2.9,3.21-6.89,5.32-12.44,5.32-8.06,0-14.24-4.62-14.24-13.07ZM511.16,546.38v-1.96c-1.49-.63-3.6-1.09-5.79-1.09-4.3,0-6.81,2.11-6.81,5.24v.16c0,2.9,2.19,4.62,5.24,4.62,4.3,0,7.36-2.74,7.36-6.96Z"/>
  </g>
</svg>