<?xml version="1.0" encoding="UTF-8"?>
<svg id="Layer_1" xmlns="http://www.w3.org/2000/svg" version="1.1" viewBox="0 0 600 600">
  <!-- Generator: Adobe Illustrator 29.1.0, SVG Export Plug-In . SVG Version: 2.1.0 Build 142)  -->
  <defs>
    <style>
      .st0 {
        fill: #c2cfc7;
      }

      .st1 {
        fill: #002d3a;
        opacity: .65;
      }

      .st2 {
        fill: #7bc36b;
      }

      .st3 {
        fill: #fff;
      }
    </style>
  </defs>
  <g>
    <path class="st1" d="M358.34,67.55c53.8,22.75,91.54,76.02,91.54,138.11,0,82.78-67.11,149.89-149.89,149.89s-149.89-67.11-149.89-149.89S217.22,55.77,300,55.77c20.69,0,40.41,4.19,58.34,11.78"/>
    <path class="st0" d="M300,377.09c-94.53,0-171.43-76.9-171.43-171.43S205.47,34.22,300,34.22c23.14,0,45.59,4.53,66.73,13.47,63.6,26.9,104.7,88.9,104.7,157.96,0,94.53-76.9,171.43-171.43,171.43ZM300,40.7c-90.95,0-164.95,74-164.95,164.95s74,164.95,164.95,164.95,164.96-74,164.96-164.95c0-66.45-39.55-126.11-100.75-151.99-20.34-8.6-41.94-12.96-64.21-12.96Z"/>
    <g>
      <path class="st2" d="M395.12,113.37c-.84,0-1.69-.32-2.34-.97-45.93-45.75-121.3-50.64-171.59-11.1-1.44,1.13-3.52.88-4.65-.56-1.13-1.44-.88-3.52.56-4.65,52.88-41.57,132.1-36.46,180.36,11.61,1.29,1.29,1.3,3.39,0,4.68-.65.65-1.49.97-2.35.97Z"/>
      <path class="st2" d="M177.26,263.3c-1.27,0-2.48-.74-3.03-1.97-19.09-43.17-13.76-94.7,13.91-134.49,1.04-1.5,3.1-1.87,4.61-.83,1.5,1.04,1.87,3.11.83,4.61-26.36,37.9-31.45,86.95-13.29,128.02.74,1.67-.02,3.63-1.69,4.37-.44.19-.89.28-1.34.28Z"/>
      <path class="st2" d="M218.36,315.87c-.7,0-1.41-.22-2.01-.68-7.33-5.61-14.13-12.03-20.2-19.09-1.19-1.39-1.04-3.48.35-4.67,1.38-1.19,3.48-1.04,4.67.35,5.78,6.71,12.24,12.82,19.21,18.15,1.45,1.11,1.73,3.19.62,4.64-.65.85-1.64,1.3-2.63,1.3Z"/>
      <path class="st2" d="M300.09,343.31c-16.33,0-32.83-2.91-48.35-8.66-1.71-.64-2.59-2.54-1.95-4.26.64-1.72,2.55-2.59,4.26-1.96,24.48,9.08,51.52,10.73,76.14,4.65,34.67-8.57,65.04-32.71,83.32-66.25,18.1-33.2,21.91-71.38,10.47-104.73-.59-1.73.33-3.61,2.06-4.21,1.73-.59,3.61.33,4.21,2.06,12.04,35.11,8.06,75.22-10.92,110.05-19.17,35.17-51.08,60.5-87.55,69.51-10.27,2.54-20.94,3.8-31.69,3.8Z"/>
      <path class="st2" d="M420.7,149c-1.22,0-2.39-.68-2.97-1.84-1.54-3.09-3.21-6.17-4.98-9.13-.94-1.57-.42-3.6,1.15-4.54,1.57-.94,3.61-.43,4.54,1.15,1.86,3.11,3.62,6.34,5.22,9.58.82,1.64.14,3.63-1.49,4.44-.47.23-.97.35-1.47.35Z"/>
    </g>
    <path class="st3" d="M407.96,220.5l-.99-1.44-19.99,8.51c-1.36-4.09-4.91-7.16-9.24-7.86-1.25-1.55-2.61-3.37-1.53-3.85,1.49-.67,7.84,1.82,9.64.87,1.8-.95,13.21-10.54,14.37-11.42,1.16-.87.92-2.9-.11-7.27-1.03-4.37-3.43-14.07-4.11-16.31-.68-2.24-4.38-6.46-6.55-8.46-2.17-2-9.9-10.22-12.38-11.58-2.48-1.35-7.6-.2-10.91.17l-3.31.37s-19.41,4.37-23.34,5.93c-3.93,1.56-7.45,9.32-7.42,11.14-4.93-.56-9.89-.8-9.89-.8l-.98,24.08c2.43,1.49,3.52,4.44,1.83,3.98-2-.31-17.01.7-21.22,1,.96-2.34,1.08-7.58,1.08-7.58-1.9.52-3.47.05-3.47.05,0,0-2.59-.84-1.09-2.31s1.08-2.5.83-3.54c-.36-2.48-3.5-2.91-3.37-5.32s-4.19-31.71-4.19-31.71c.8-.41,2.79-1.33,2.86-2.13.07-.8-.98-1.03-2.83-1.08-1.85-.05-2.66-.76-2.66-.76l-.19-1.68-2.41-.04-.37,1.69-6.18-.22.28-2.48-18.79-.68.41,2.56-10.1-1.44.05,2.91s2.13-.03,3.7.5c1.58.54,1.6,2.33.61,3.35-.99,1.02-9.27,22.99-9.27,22.99-1.91-.42-6.4-1.02-6.4-1.02.52-2.36,1.51-10.66,1.71-12.35.2-1.68.35-5.94-6.49-6.95l-.83,4.27c2.46-.04,3.05,1.86,2.97,3.87-.08,2.02-1.05,11.44-1.05,11.44l-21.55,3.81c-1.22.8-4.86,4-5.18,5.46-.31,1.46-.7,5.27-.58,5.94l.03.05c-9.83.83-17.47,9.14-17.31,19.15.16,10.45,8.77,18.79,19.22,18.62,10.45-.16,18.79-8.77,18.62-19.22,0-.33-.02-.65-.04-.98l9.15-3.53s2.01-.37,3.81-.06c1.8.31,12.05,1.04,14.71.66,2.35,1.2,5.2,4.96,5.2,4.96h.4c-.24,1.25-.36,2.56-.34,3.89.16,10.45,8.77,18.79,19.22,18.62,10.45-.16,18.79-8.77,18.62-19.22-.02-1.02-.12-2.02-.29-3,5.77-.55,29.15-2.77,32.06-2.86,3.32-.11,10.68,1.87,13.94,5.02,3.26,3.16-.11,6.48-12.17,5.33-.69,3.49-.82,5.52-.82,5.52,0,0,6.15-.47,3.41,2.41-2.74,2.88-4.38,7.13-4.38,7.13l15,1.37-.49-3.84c4.28.15,10.81.15,12.49-2.02,1.68-2.17,2.95-3.04,3.58-3.69.37-.39.97-.47,1.37-.02-.1.66-.16,1.33-.15,2.02.1,6.47,5.43,11.63,11.9,11.53,6.47-.1,11.63-5.43,11.53-11.9,0-.35-.03-.69-.07-1.03l20.45-9.55ZM323.81,211.34c-2.39.32-19.73,1.62-23.89,1.93-.15-.54-.33-1.08-.52-1.6.46-.7.94-1.45,1.38-2.16l23.84-1.81.21-.02c1.39-.13,1.71,3.29-1.01,3.65ZM330.81,203.02l-8.57-.83.32-9.99,8.78.54-.53,10.27ZM331.31,191l-8.57-.83.6-9.53,8.78.54-.81,9.82Z"/>
  </g>
  <g>
    <path class="st3" d="M196.96,420.59h14.67v40.06h25.63v12.85h-40.29v-52.91Z"/>
    <path class="st3" d="M244.82,432.61h14.36v40.9h-14.36v-40.9ZM254.04,415.15l13.38,4.31-11.11,9.68h-10.13l7.86-13.99Z"/>
    <path class="st3" d="M269,432.61h14.36v5.75c2.65-3.4,6.42-6.65,12.25-6.65,8.69,0,13.91,5.75,13.91,15.04v26.76h-14.36v-22.15c0-4.46-2.34-6.88-5.75-6.88s-6.05,2.42-6.05,6.88v22.15h-14.36v-40.9Z"/>
    <path class="st3" d="M317.08,453.25v-.15c0-11.94,8.54-21.39,20.64-21.39,14.14,0,20.64,10.36,20.64,22.38,0,.91,0,1.96-.08,2.95h-27.36c1.13,4.46,4.38,6.73,8.84,6.73,3.4,0,6.12-1.29,9.07-4.16l7.94,6.58c-3.93,4.99-9.6,8.31-17.76,8.31-12.85,0-21.92-8.54-21.92-21.24ZM344.9,449.7c-.53-4.54-3.17-7.41-7.11-7.41s-6.35,2.95-7.11,7.41h14.21Z"/>
    <path class="st3" d="M364.25,461.79v-.15c0-8.47,6.43-12.85,16.03-12.85,3.78,0,7.48.76,9.83,1.59v-.68c0-4.23-2.65-6.65-8.16-6.65-4.31,0-7.63.83-11.26,2.27l-2.95-10.13c4.61-1.89,9.52-3.17,16.55-3.17s12.32,1.74,15.57,4.99c3.1,3.02,4.38,7.26,4.38,13v23.51h-14.21v-4.23c-2.8,3.1-6.65,5.14-12.02,5.14-7.79,0-13.76-4.46-13.76-12.62ZM390.26,458.69v-1.89c-1.44-.6-3.48-1.06-5.59-1.06-4.16,0-6.58,2.04-6.58,5.06v.15c0,2.8,2.12,4.46,5.07,4.46,4.16,0,7.11-2.65,7.11-6.73Z"/>
    <path class="st3" d="M83.46,499.78h15.5l12.62,20.49,12.62-20.49h15.5v52.91h-14.59v-30.39l-13.53,20.71h-.3l-13.46-20.56v30.24h-14.36v-52.91Z"/>
    <path class="st3" d="M148.02,540.98v-.15c0-8.47,6.42-12.85,16.03-12.85,3.78,0,7.48.76,9.83,1.59v-.68c0-4.23-2.65-6.65-8.16-6.65-4.31,0-7.63.83-11.26,2.27l-2.95-10.13c4.61-1.89,9.52-3.17,16.55-3.17s12.32,1.74,15.57,4.99c3.1,3.02,4.38,7.26,4.38,13v23.51h-14.21v-4.23c-2.8,3.1-6.65,5.14-12.02,5.14-7.79,0-13.76-4.46-13.76-12.62ZM174.02,537.88v-1.89c-1.44-.6-3.48-1.06-5.59-1.06-4.16,0-6.58,2.04-6.58,5.06v.15c0,2.8,2.12,4.46,5.06,4.46,4.16,0,7.11-2.65,7.11-6.73Z"/>
    <path class="st3" d="M226.18,547.25c-2.8,3.4-6.35,6.35-12.47,6.35-9.68,0-18.07-8.09-18.07-21.17v-.15c0-13.3,8.32-21.39,17.99-21.39,6.2,0,9.83,2.8,12.55,5.9v-4.99h14.36v52.99h-14.36v-17.54ZM226.41,532.29v-.15c0-5.37-3.7-9.22-8.32-9.22s-8.39,3.78-8.39,9.22v.15c0,5.44,3.78,9.3,8.39,9.3s8.32-3.85,8.32-9.3Z"/>
    <path class="st3" d="M249.77,538.56v-26.76h14.36v22.15c0,4.46,2.34,6.88,5.82,6.88s5.97-2.42,5.97-6.88v-22.15h14.36v40.9h-14.36v-5.59c-2.65,3.4-6.43,6.5-12.25,6.5-8.69,0-13.91-5.75-13.91-15.04Z"/>
    <path class="st3" d="M299.81,497.51h14.97v10.58h-14.97v-10.58ZM300.11,511.8h14.36v40.9h-14.36v-40.9Z"/>
    <path class="st3" d="M324.3,511.8h14.36v5.75c2.65-3.4,6.43-6.65,12.25-6.65,8.69,0,13.91,5.75,13.91,15.04v26.76h-14.36v-22.15c0-4.46-2.34-6.88-5.75-6.88s-6.05,2.42-6.05,6.88v22.15h-14.36v-40.9Z"/>
    <path class="st3" d="M372,540.98v-.15c0-8.47,6.43-12.85,16.03-12.85,3.78,0,7.48.76,9.83,1.59v-.68c0-4.23-2.65-6.65-8.16-6.65-4.31,0-7.63.83-11.26,2.27l-2.95-10.13c4.61-1.89,9.52-3.17,16.55-3.17s12.32,1.74,15.57,4.99c3.1,3.02,4.38,7.26,4.38,13v23.51h-14.21v-4.23c-2.8,3.1-6.65,5.14-12.02,5.14-7.79,0-13.76-4.46-13.76-12.62ZM398.01,537.88v-1.89c-1.44-.6-3.48-1.06-5.59-1.06-4.16,0-6.58,2.04-6.58,5.06v.15c0,2.8,2.12,4.46,5.07,4.46,4.16,0,7.11-2.65,7.11-6.73Z"/>
    <path class="st3" d="M421.14,511.8h14.36v8.24c2.34-5.59,6.12-9.22,12.93-8.92v15.12h-1.21c-7.48,0-11.72,4.31-11.72,13.76v12.7h-14.36v-40.9Z"/>
    <path class="st3" d="M455.31,497.51h14.97v10.58h-14.97v-10.58ZM455.61,511.8h14.36v40.9h-14.36v-40.9Z"/>
    <path class="st3" d="M477.76,540.98v-.15c0-8.47,6.42-12.85,16.03-12.85,3.78,0,7.48.76,9.83,1.59v-.68c0-4.23-2.65-6.65-8.16-6.65-4.31,0-7.63.83-11.26,2.27l-2.95-10.13c4.61-1.89,9.52-3.17,16.55-3.17s12.32,1.74,15.57,4.99c3.1,3.02,4.38,7.26,4.38,13v23.51h-14.21v-4.23c-2.8,3.1-6.65,5.14-12.02,5.14-7.79,0-13.76-4.46-13.76-12.62ZM503.76,537.88v-1.89c-1.44-.6-3.48-1.06-5.59-1.06-4.16,0-6.58,2.04-6.58,5.06v.15c0,2.8,2.12,4.46,5.06,4.46,4.16,0,7.11-2.65,7.11-6.73Z"/>
  </g>
</svg>