<?xml version="1.0" encoding="UTF-8"?>
<svg id="Layer_1" xmlns="http://www.w3.org/2000/svg" version="1.1" viewBox="0 0 600 600">
  <!-- Generator: Adobe Illustrator 29.1.0, SVG Export Plug-In . SVG Version: 2.1.0 Build 142)  -->
  <defs>
    <style>
      .st0 {
        fill: #c2cfc7;
      }

      .st1 {
        fill: #7bc36b;
      }

      .st2 {
        fill: #fff;
      }

      .st3 {
        fill: #002d3a;
        isolation: isolate;
        opacity: .65;
      }
    </style>
  </defs>
  <g>
    <path class="st3" d="M359.8,63.76c55.14,23.32,93.82,77.92,93.82,141.55,0,84.84-68.78,153.62-153.62,153.62s-153.62-68.78-153.62-153.62S215.16,51.69,300,51.69c21.21,0,41.42,4.3,59.8,12.07"/>
    <path class="st0" d="M300,381.01c-96.88,0-175.7-78.82-175.7-175.7S203.12,29.61,300,29.61c23.72,0,46.73,4.65,68.39,13.81,65.19,27.57,107.31,91.12,107.31,161.89,0,96.88-78.82,175.7-175.7,175.7ZM300,36.24c-93.22,0-169.06,75.84-169.06,169.06s75.84,169.06,169.06,169.06,169.06-75.84,169.06-169.06c0-68.1-40.53-129.25-103.26-155.78-20.84-8.82-42.98-13.28-65.81-13.28h.01Z"/>
    <g>
      <path class="st1" d="M397.49,110.72c-.87,0-1.73-.33-2.4-.99-47.08-46.89-124.32-51.9-175.86-11.38-1.48,1.16-3.61.9-4.77-.57s-.9-3.61.57-4.77c54.19-42.6,135.39-37.37,184.86,11.9,1.33,1.32,1.33,3.47,0,4.8-.66.67-1.53,1-2.4,1h0Z"/>
      <path class="st1" d="M174.2,264.39c-1.3,0-2.55-.75-3.11-2.02-19.56-44.24-14.1-97.06,14.26-137.84,1.07-1.54,3.18-1.92,4.73-.85,1.54,1.07,1.92,3.19.85,4.73-27.02,38.84-32.23,89.12-13.62,131.21.76,1.71-.02,3.72-1.73,4.48-.45.2-.92.29-1.37.29h-.01Z"/>
      <path class="st1" d="M216.32,318.27c-.72,0-1.44-.23-2.06-.7-7.51-5.75-14.48-12.33-20.7-19.56-1.22-1.42-1.06-3.56.36-4.79,1.41-1.22,3.56-1.07,4.79.36,5.92,6.88,12.54,13.14,19.68,18.6,1.49,1.14,1.77,3.27.63,4.76-.67.87-1.68,1.33-2.7,1.33h0Z"/>
      <path class="st1" d="M300.09,346.39c-16.74,0-33.65-2.98-49.55-8.88-1.76-.65-2.66-2.61-2-4.36s2.61-2.66,4.36-2c25.09,9.3,52.81,10.99,78.03,4.76,35.54-8.78,66.66-33.53,85.4-67.9,18.55-34.03,22.46-73.15,10.73-107.34-.61-1.77.34-3.7,2.11-4.31s3.7.34,4.31,2.11c12.34,35.98,8.27,77.09-11.19,112.79-19.64,36.04-52.35,62.01-89.73,71.24-10.53,2.6-21.46,3.89-32.47,3.89h0Z"/>
      <path class="st1" d="M423.71,147.25c-1.25,0-2.45-.69-3.04-1.89-1.57-3.17-3.29-6.32-5.1-9.36-.96-1.61-.43-3.69,1.17-4.65,1.61-.96,3.7-.44,4.65,1.18,1.9,3.19,3.71,6.49,5.35,9.82.84,1.68.15,3.72-1.53,4.55-.48.24-1,.35-1.51.35h.01Z"/>
    </g>
    <path class="st2" d="M300,92.41c-60.92,0-110.49,49.56-110.49,110.49s49.57,110.49,110.49,110.49,110.49-49.56,110.49-110.49-49.56-110.49-110.49-110.49ZM362.96,279.42c-1.83-6.68-4.16-10.87-4.5-11.78-1.1-2.39-2.16-4.81-3.07-7.28-.47-1.26-.48-2.57.62-3.72,1.81-1.9,3.97-3.2,6.39-4.14.36-.14.71-.37.98-.65.46-.47.91-.96,1.27-1.51,1.08-1.62,1.7-3.35,1.16-5.35-.12-.46-.14-1.15.12-1.48,1.14-1.41.75-3.06.65-4.67-.06-.97.04-1.89-.05-2.86-.14-1.67-.09-2.86-2.37-3.67-2.01-.71-2.48-1.45-4.35-2.51-1.58-.89-3.05-1.88-4.38-3.11-1.25-1.16-2.55-2.26-3.88-3.33-.52-.42-1.14-.76-1.77-.99-1.77-.99-5.93-.68-8.07-.51-1.52.12-3.12.08-3.92-1.44-.47-.88-.59-2.03-.59-3.06,0-1.47.28-2.95.42-4.42.07-.74.15-1.5-.56-2.29-1.47,3.03-1.85,6.42-3.83,9.25-.41-1.09-.85-2.04-1.13-3.03-.66-2.31-1.77-4.4-2.89-6.5-.64-1.2-1.72-1.03-2.53,0-1.08,1.35-1.4,3.02-1.76,4.63-.59,2.55-1.01,5.13-1.49,7.71-10.79,11.52-.64,44.95-39.29,59.27,14.28-10.43,25.01-24.87,24.07-52.89,4.28-40.27,69.42-29.93,55.29-74.59-2.22-9.6-9.89-4.06-30.16-1.82-15.36,1.7-23.99-25.63-53.73-12.4-59.61,26.51-12.27,69.31,5.98,65.95,27.2-5.01-8.47-20.74.15-38.99-2.5,15.04,27.73,30.37,9.08,41.84-20.95,12.88-44.45-12.26-44.45-12.26-2.08,36.55-22.83,37.72-39.75,48.94-6.24-12.97-9.74-27.5-9.74-42.84,0-54.67,44.47-99.14,99.14-99.14s99.14,44.47,99.14,99.14c0,30.78-14.1,58.32-36.17,76.52h-.03Z"/>
  </g>
  <g>
    <path class="st2" d="M194.4,425.59h15.03v41.07h26.27v13.17h-41.3v-54.24h0Z"/>
    <path class="st2" d="M243.44,437.91h14.72v41.92h-14.72v-41.92h0ZM252.89,420.01l13.71,4.42-11.39,9.92h-10.38l8.06-14.33h0Z"/>
    <path class="st2" d="M268.23,437.91h14.72v5.89c2.71-3.49,6.59-6.82,12.55-6.82,8.91,0,14.26,5.89,14.26,15.42v27.43h-14.72v-22.7c0-4.57-2.4-7.05-5.89-7.05s-6.2,2.48-6.2,7.05v22.7h-14.72v-41.92h0Z"/>
    <path class="st2" d="M317.51,459.07v-.16c0-12.24,8.76-21.93,21.15-21.93,14.49,0,21.15,10.62,21.15,22.94,0,.93,0,2.01-.08,3.02h-28.05c1.16,4.57,4.49,6.9,9.07,6.9,3.49,0,6.28-1.32,9.3-4.26l8.14,6.74c-4.03,5.11-9.84,8.52-18.21,8.52-13.17,0-22.47-8.75-22.47-21.77h0ZM346.02,455.42c-.54-4.65-3.25-7.59-7.28-7.59s-6.51,3.02-7.28,7.59h14.57-.01Z"/>
    <path class="st2" d="M365.85,467.82v-.16c0-8.68,6.59-13.17,16.43-13.17,3.87,0,7.67.77,10.07,1.63v-.7c0-4.34-2.71-6.82-8.37-6.82-4.42,0-7.83.85-11.55,2.33l-3.02-10.38c4.73-1.94,9.76-3.25,16.97-3.25s12.63,1.78,15.96,5.11c3.18,3.1,4.49,7.44,4.49,13.33v24.1h-14.57v-4.34c-2.87,3.18-6.82,5.27-12.32,5.27-7.98,0-14.1-4.57-14.1-12.94h.01ZM392.51,464.64v-1.94c-1.47-.62-3.56-1.08-5.73-1.08-4.26,0-6.74,2.09-6.74,5.19v.16c0,2.87,2.17,4.57,5.19,4.57,4.26,0,7.28-2.71,7.28-6.9h0Z"/>
    <path class="st2" d="M135.9,506.75h15.88l12.94,21,12.94-21h15.88v54.24h-14.95v-31.15l-13.87,21.23h-.31l-13.79-21.08v30.99h-14.72v-54.24h0Z"/>
    <path class="st2" d="M202.07,548.98v-.16c0-8.68,6.59-13.17,16.43-13.17,3.87,0,7.67.77,10.07,1.63v-.7c0-4.34-2.71-6.82-8.37-6.82-4.42,0-7.83.85-11.54,2.33l-3.02-10.38c4.73-1.94,9.76-3.25,16.97-3.25s12.63,1.78,15.96,5.11c3.18,3.1,4.49,7.44,4.49,13.33v24.1h-14.57v-4.34c-2.87,3.18-6.82,5.27-12.32,5.27-7.98,0-14.1-4.57-14.1-12.94h0ZM228.72,545.8v-1.94c-1.47-.62-3.56-1.08-5.73-1.08-4.26,0-6.74,2.09-6.74,5.19v.16c0,2.87,2.17,4.57,5.19,4.57,4.26,0,7.28-2.71,7.28-6.9h0Z"/>
    <path class="st2" d="M249.25,555.72l5.5-8.91c4.8,3.18,10.07,4.8,14.41,4.8,2.56,0,3.72-.77,3.72-2.25v-.15c0-1.63-2.32-2.33-6.74-3.56-8.29-2.17-14.88-4.96-14.88-13.41v-.15c0-8.91,7.13-13.87,16.81-13.87,6.12,0,12.48,1.78,17.28,4.88l-5.04,9.3c-4.34-2.4-9.07-3.87-12.4-3.87-2.25,0-3.41.85-3.41,2.01v.16c0,1.63,2.4,2.4,6.82,3.72,8.29,2.32,14.88,5.19,14.88,13.33v.16c0,9.22-6.9,14.02-17.12,14.02-7.05,0-14.02-2.01-19.84-6.2h0Z"/>
    <path class="st2" d="M292.41,540.23v-.16c0-11.85,9.22-21.85,22.47-21.85,8.6,0,14.33,3.72,17.9,9.38l-10,7.44c-2.01-2.79-4.26-4.42-7.83-4.42-4.73,0-8.21,4.18-8.21,9.3v.16c0,5.42,3.41,9.53,8.37,9.53,3.49,0,5.73-1.63,8.06-4.34l9.84,7.13c-3.87,5.73-9.45,9.61-18.67,9.61-12.63,0-21.93-9.92-21.93-21.77h0Z"/>
    <path class="st2" d="M337.19,540.23v-.16c0-11.93,9.76-21.93,23.25-21.93s23.09,9.84,23.09,21.77v.16c0,11.93-9.76,21.93-23.25,21.93s-23.09-9.84-23.09-21.77ZM369.19,540.23v-.16c0-5.11-3.72-9.45-8.91-9.45s-8.75,4.26-8.75,9.3v.16c0,5.11,3.72,9.45,8.91,9.45s8.76-4.26,8.76-9.3h-.01Z"/>
    <path class="st2" d="M393.75,547.97v-17.05h-4.96v-11.86h4.96v-10.62h14.72v10.62h9.76v11.86h-9.76v14.18c0,2.94,1.32,4.18,4.03,4.18,1.94,0,3.8-.54,5.58-1.39v11.54c-2.63,1.47-6.12,2.4-10.23,2.4-8.83,0-14.1-3.87-14.1-13.87h0Z"/>
    <path class="st2" d="M424.35,548.98v-.16c0-8.68,6.59-13.17,16.43-13.17,3.87,0,7.67.77,10.07,1.63v-.7c0-4.34-2.71-6.82-8.37-6.82-4.42,0-7.83.85-11.55,2.33l-3.02-10.38c4.73-1.94,9.76-3.25,16.97-3.25s12.63,1.78,15.96,5.11c3.18,3.1,4.49,7.44,4.49,13.33v24.1h-14.57v-4.34c-2.87,3.18-6.82,5.27-12.32,5.27-7.98,0-14.1-4.57-14.1-12.94h.01ZM451.01,545.8v-1.94c-1.47-.62-3.56-1.08-5.73-1.08-4.26,0-6.74,2.09-6.74,5.19v.16c0,2.87,2.17,4.57,5.19,4.57,4.26,0,7.28-2.71,7.28-6.9h0Z"/>
  </g>
</svg>