<?xml version="1.0" encoding="UTF-8"?>
<svg id="Layer_1" xmlns="http://www.w3.org/2000/svg" version="1.1" viewBox="0 0 600 600">
  <!-- Generator: Adobe Illustrator 29.1.0, SVG Export Plug-In . SVG Version: 2.1.0 Build 142)  -->
  <defs>
    <style>
      .st0 {
        fill: #c2cfc7;
      }

      .st1 {
        fill: #002d3a;
        opacity: .65;
      }

      .st2 {
        fill: #7bc36b;
      }

      .st3 {
        fill: #fff;
      }
    </style>
  </defs>
  <g>
    <path class="st1" d="M358.34,67.55c53.8,22.75,91.54,76.02,91.54,138.11,0,82.78-67.11,149.89-149.89,149.89s-149.89-67.11-149.89-149.89S217.22,55.77,300,55.77c20.69,0,40.41,4.19,58.34,11.78"/>
    <path class="st0" d="M300,377.09c-94.53,0-171.43-76.9-171.43-171.43S205.47,34.22,300,34.22c23.14,0,45.59,4.53,66.73,13.47,63.6,26.9,104.7,88.9,104.7,157.96,0,94.53-76.9,171.43-171.43,171.43ZM300,40.7c-90.95,0-164.95,74-164.95,164.95s74,164.95,164.95,164.95,164.96-74,164.96-164.95c0-66.45-39.55-126.11-100.75-151.99-20.34-8.6-41.94-12.96-64.21-12.96Z"/>
    <g>
      <path class="st2" d="M395.12,113.37c-.84,0-1.69-.32-2.34-.97-45.93-45.75-121.3-50.64-171.59-11.1-1.44,1.13-3.52.88-4.65-.56-1.13-1.44-.88-3.52.56-4.65,52.88-41.57,132.1-36.46,180.36,11.61,1.29,1.29,1.3,3.39,0,4.68-.65.65-1.49.97-2.35.97Z"/>
      <path class="st2" d="M177.26,263.3c-1.27,0-2.48-.74-3.03-1.97-19.09-43.17-13.76-94.7,13.91-134.49,1.04-1.5,3.1-1.87,4.61-.83,1.5,1.04,1.87,3.11.83,4.61-26.36,37.9-31.45,86.95-13.29,128.02.74,1.67-.02,3.63-1.69,4.37-.44.19-.89.28-1.34.28Z"/>
      <path class="st2" d="M218.36,315.87c-.7,0-1.41-.22-2.01-.68-7.33-5.61-14.13-12.03-20.2-19.09-1.19-1.39-1.04-3.48.35-4.67,1.38-1.19,3.48-1.04,4.67.35,5.78,6.71,12.24,12.82,19.21,18.15,1.45,1.11,1.73,3.19.62,4.64-.65.85-1.64,1.3-2.63,1.3Z"/>
      <path class="st2" d="M300.09,343.31c-16.33,0-32.83-2.91-48.35-8.66-1.71-.64-2.59-2.54-1.95-4.26.64-1.72,2.55-2.59,4.26-1.96,24.48,9.08,51.52,10.73,76.14,4.65,34.67-8.57,65.04-32.71,83.32-66.25,18.1-33.2,21.91-71.38,10.47-104.73-.59-1.73.33-3.61,2.06-4.21,1.73-.59,3.61.33,4.21,2.06,12.04,35.11,8.06,75.22-10.92,110.05-19.17,35.17-51.08,60.5-87.55,69.51-10.27,2.54-20.94,3.8-31.69,3.8Z"/>
      <path class="st2" d="M420.7,149c-1.22,0-2.39-.68-2.97-1.84-1.54-3.09-3.21-6.17-4.98-9.13-.94-1.57-.42-3.6,1.15-4.54,1.57-.94,3.61-.43,4.54,1.15,1.86,3.11,3.62,6.34,5.22,9.58.82,1.64.14,3.63-1.49,4.44-.47.23-.97.35-1.47.35Z"/>
    </g>
    <path class="st3" d="M222.21,179.77c6.43-5,9.1-14.44,10.07-19.1,3.23,1.86,9.03,4.54,13.49,2.84,1.72-.66,3.97-2.28,4.89-6.27,2.54-11.02,19.16-21.76,31.2-20.15,12.74,1.7,28.49,15.57,28.64,15.71l.51.46h19.52c2.54,0,9.77,12.96,15.93,28.33-2.86.21-5.42.95-6.9,2.3-6.16,1.14-11.53,3.95-16.37,7.04l.42-13.21c1.45-.95,3.7-3.16,3.7-7.8,0-12.2-4.25-14.44-5.1-14.76l-1.26-.48-.81,1.09c-.12.15-2.72,3.69-6.18,13.76-.15.02-.3.05-.46.07-1.22-3.61-5.99-14.87-17.85-14.87-11.25,0-15.34,8.56-16.55,12.11-2.33.5-4.56,1.28-6.39,2.45-2.53-2.06-4.92-3.7-7.1-4.98,1.9-4.08,8.57-15.87,22.78-16.35l-.12-3.58c-15.7.52-23.43,13.37-25.8,18.23-5.15-2.54-8.56-3.02-8.86-3.05l-1.38-.16-.5,1.3c-4.15,10.82-.41,28.27.92,33.7-16.58,5.44-27.46-1.24-30.79-7.26-1.32-2.38-1.92-5.57.36-7.34ZM320.08,208.83c-3.12-.18-6.23-.29-9.23-.29-3.34,0-7.02.12-10.64.45-.88-1.19-1.46-2.41-1.26-2.88.1-.24.96-.84,3.77-.84,5.77,0,11.35-3.83,17.26-7.88.87-.6,1.77-1.21,2.67-1.81h.38s.01-.26.01-.26c4.26-2.84,8.91-5.62,14.08-7.15-6.18,11.81-14.98,19.08-17.04,20.67ZM256.28,194.11c-1.02-4.06-4.74-20.37-1.7-30.71,3.99,1.04,15.89,5.4,28.38,21.82-.15.29-.33.54-.46.86-2.48,5.9-.35,14.38,1.45,19.6-8.91-5.44-23.76-10.32-27.68-11.56ZM294.19,169.87l.44-3.56c-.37-.05-5.7-.68-11.48-.11,1.49-3.19,4.95-7.9,12.47-7.9,9.12,0,13.05,8.42,14.27,11.86-1.49.3-2.98.68-4.45,1.12-1.78-5.17-7.37-8.8-7.64-8.97l-1.93,3.02c1.46.94,5.06,3.83,6.18,7.1-5.46,2.08-10.94,5.22-16.94,9.69-3.28-4.2-6.49-7.59-9.56-10.39,6.55-3.31,18.5-1.88,18.63-1.87ZM291.82,210.26c-.7-.42-1.67-.98-2.86-1.62-.76-1.72-6.07-14.23-3.14-21.19.79-1.87,2.12-3.13,4.06-3.82l-.14-.41c9.13-6.41,16.83-9.45,25.71-10.25l1.17-.11.37-1.11c2.07-6.22,3.83-9.98,4.91-11.98.82,1.46,1.82,4.4,1.82,10.15,0,3.96-2.21,4.92-2.43,5l-1.18.4-.58,18.04c-.52.36-1.06.71-1.57,1.07-5.67,3.89-10.57,7.25-15.22,7.25-1.44,0-5.82,0-7.09,3.06-.65,1.56-.15,3.26.62,4.71-1.54.22-3.03.48-4.44.81ZM217.86,194.03c-.32-1.94.19-3.76.83-5.2v.02c2.95,5.31,10.69,11.12,22.25,11.12,4.14,0,8.79-.78,13.86-2.56,1.53.49,6.47,2.08,12.14,4.27-2.45-.22-4.94-.26-7.46.02-14.52,1.62-32.22.27-35.08.03-3.84-2.22-6.05-4.81-6.53-7.69ZM237.75,227.95c-9.14-7.2-11.42-18.09-11.98-22.53,5.58.4,21.06,1.28,34.1-.17,10.7-1.21,21.62,3.52,27.29,6.52-1.35.57-2.59,1.2-3.52,1.98l-.25.26c-3.29,4.1-4.48,7.55-4.75,8.5-.57,1.06-2.78,5.63-1.67,10.81-17.03,3.48-30.24,1.7-39.22-5.37ZM323.24,235.53c-5.73,0-10.35-.65-10.4-.66l-2.32-.33.29,2.33s.32,3.09-1.59,5.26c-1.4,1.59-3.71,2.39-6.88,2.39-2.5,0-5.53-.51-8.98-1.52-6.66-1.94-10.84-4.92-12.41-8.85-1.98-4.96.87-10,.9-10.05l.19-.46s.87-3.24,4.03-7.24c2.17-1.72,6.58-2.97,12.64-3.66.01.02.05.05.06.07l.08-.08c3.5-.4,7.52-.6,12.01-.6,3.15,0,6.42.1,9.69.31,13.06.82,17.05,3.5,18.83,20.48-3.78,1.71-9.32,2.62-16.14,2.62ZM353.54,222.56c-3.18,2.05-7.56,1.34-13.01-2.07-2.54-7.01-7.05-10.05-15.39-11.2,4.32-3.86,11.76-11.6,16.79-22.79,1.03-1.01,5.79-2.09,10.96-.91,2.4.54,6.54,2.01,7.27,5.62,1.2,7.19,1,26.44-6.61,31.35ZM378.06,188.82h-14.94c-1.38-3.27-4.66-5.64-9.45-6.72-1.06-.24-2.2-.39-3.35-.48-.09-.22-.19-.47-.28-.7l16.35-10.63c-7.36.32-14.69,3.82-18.31,5.81-3.06-7.31-7.3-16.38-11.41-21.78,3.31-1.24,10.86-2.89,26.25-1.39,19.02,1.86,32.04,3.37,36.8,3.94-2.81,10.46-10.82,31.94-21.68,31.94ZM237.6,252.99c-6.17,4.13-23.07,19.12-27.64,23.19-2.61-2.23-9.04-8.92-9.5-21.16-2.41-24.18,17.38-36.78,23.85-40.23,1.23,3.46,3.12,7.28,6.03,10.86-3.5,1.9-12.98,8.17-14.62,21.11,4.91-9.47,13.37-16.18,16.82-18.66.91.92,1.87,1.81,2.94,2.66,2.07,1.64,4.4,2.94,6.86,4.06-3.64,5.69-4.55,15.15-4.76,18.18ZM261.17,275.53c-3.5-.24-9.45-2.35-13.86-6.48-4.3-4.03-6.38-9.08-6.18-14.98.14-3.71,1.29-13.36,4.66-17.87,2.89.99,5.95,1.72,9.29,2.1-1.93,3.91-5.66,13.38-1.69,22.36-.17-8.15,3.4-18.01,5.03-22.08.98.05,1.95.1,2.97.1,1.85,0,3.79-.11,5.76-.28-.67,5.31-2.51,18.74-5.98,37.15Z"/>
  </g>
  <g>
    <path class="st3" d="M196.96,420.59h14.67v40.06h25.62v12.85h-40.29v-52.91Z"/>
    <path class="st3" d="M244.82,432.61h14.36v40.9h-14.36v-40.9ZM254.04,415.15l13.38,4.31-11.11,9.68h-10.13l7.86-13.99Z"/>
    <path class="st3" d="M269.01,432.61h14.36v5.75c2.65-3.4,6.43-6.65,12.25-6.65,8.69,0,13.91,5.75,13.91,15.04v26.76h-14.36v-22.15c0-4.46-2.34-6.88-5.75-6.88s-6.05,2.42-6.05,6.88v22.15h-14.36v-40.9Z"/>
    <path class="st3" d="M317.08,453.25v-.15c0-11.94,8.54-21.39,20.64-21.39,14.14,0,20.64,10.36,20.64,22.38,0,.91,0,1.96-.08,2.95h-27.36c1.13,4.46,4.38,6.73,8.84,6.73,3.4,0,6.12-1.29,9.07-4.16l7.94,6.58c-3.93,4.99-9.6,8.31-17.76,8.31-12.85,0-21.92-8.54-21.92-21.24ZM344.9,449.7c-.53-4.54-3.18-7.41-7.11-7.41s-6.35,2.95-7.11,7.41h14.21Z"/>
    <path class="st3" d="M364.25,461.79v-.15c0-8.47,6.43-12.85,16.03-12.85,3.78,0,7.48.76,9.83,1.59v-.68c0-4.23-2.65-6.65-8.16-6.65-4.31,0-7.63.83-11.26,2.27l-2.95-10.13c4.61-1.89,9.52-3.17,16.55-3.17s12.32,1.74,15.57,4.99c3.1,3.02,4.38,7.26,4.38,13v23.51h-14.21v-4.23c-2.8,3.1-6.65,5.14-12.02,5.14-7.79,0-13.76-4.46-13.76-12.62ZM390.26,458.69v-1.89c-1.44-.6-3.48-1.06-5.59-1.06-4.16,0-6.58,2.04-6.58,5.06v.15c0,2.8,2.12,4.46,5.06,4.46,4.16,0,7.11-2.65,7.11-6.73Z"/>
    <path class="st3" d="M66.71,526.39v-.15c0-15.19,12.25-27.52,28.57-27.52s28.42,12.17,28.42,27.36v.15c0,15.19-12.25,27.52-28.57,27.52s-28.42-12.17-28.42-27.36ZM108.74,526.39v-.15c0-7.63-5.52-14.29-13.61-14.29s-13.38,6.5-13.38,14.14v.15c0,7.63,5.52,14.29,13.53,14.29s13.46-6.5,13.46-14.14Z"/>
    <path class="st3" d="M132.33,511.8h14.36v8.24c2.34-5.59,6.12-9.22,12.93-8.92v15.12h-1.21c-7.48,0-11.72,4.31-11.72,13.76v12.7h-14.36v-40.9Z"/>
    <path class="st3" d="M166.5,511.8h14.36v5.75c2.65-3.4,6.43-6.65,12.25-6.65,8.69,0,13.91,5.75,13.91,15.04v26.76h-14.36v-22.15c0-4.46-2.34-6.88-5.75-6.88s-6.05,2.42-6.05,6.88v22.15h-14.36v-40.9Z"/>
    <path class="st3" d="M214.2,540.98v-.15c0-8.47,6.43-12.85,16.03-12.85,3.78,0,7.48.76,9.83,1.59v-.68c0-4.23-2.65-6.65-8.16-6.65-4.31,0-7.63.83-11.26,2.27l-2.95-10.13c4.61-1.89,9.52-3.17,16.55-3.17s12.32,1.74,15.57,4.99c3.1,3.02,4.38,7.26,4.38,13v23.51h-14.21v-4.23c-2.8,3.1-6.65,5.14-12.02,5.14-7.79,0-13.76-4.46-13.76-12.62ZM240.2,537.88v-1.89c-1.44-.6-3.48-1.06-5.59-1.06-4.16,0-6.58,2.04-6.58,5.06v.15c0,2.8,2.12,4.46,5.07,4.46,4.16,0,7.11-2.65,7.11-6.73Z"/>
    <path class="st3" d="M263.34,511.8h14.36v5.59c2.65-3.4,6.42-6.5,12.17-6.5,5.44,0,9.6,2.42,11.79,6.65,3.55-4.08,7.71-6.65,13.68-6.65,8.69,0,13.98,5.44,13.98,14.97v26.83h-14.36v-22.22c0-4.46-2.19-6.8-5.59-6.8s-5.9,2.34-5.9,6.8v22.22h-14.36v-22.22c0-4.46-2.19-6.8-5.59-6.8s-5.82,2.34-5.82,6.8v22.22h-14.36v-40.9Z"/>
    <path class="st3" d="M336.89,532.44v-.15c0-11.94,8.54-21.39,20.64-21.39,14.14,0,20.64,10.36,20.64,22.38,0,.91,0,1.96-.08,2.95h-27.36c1.13,4.46,4.38,6.73,8.84,6.73,3.4,0,6.12-1.29,9.07-4.16l7.94,6.58c-3.93,4.99-9.6,8.31-17.76,8.31-12.85,0-21.92-8.54-21.92-21.24ZM364.71,528.89c-.53-4.54-3.18-7.41-7.11-7.41s-6.35,2.95-7.11,7.41h14.21Z"/>
    <path class="st3" d="M386.1,511.8h14.36v5.75c2.65-3.4,6.43-6.65,12.25-6.65,8.69,0,13.91,5.75,13.91,15.04v26.76h-14.36v-22.15c0-4.46-2.34-6.88-5.75-6.88s-6.05,2.42-6.05,6.88v22.15h-14.36v-40.9Z"/>
    <path class="st3" d="M438.34,540v-16.63h-4.84v-11.57h4.84v-10.36h14.36v10.36h9.52v11.57h-9.52v13.83c0,2.87,1.28,4.08,3.93,4.08,1.89,0,3.7-.53,5.44-1.36v11.26c-2.57,1.44-5.97,2.34-9.98,2.34-8.62,0-13.76-3.78-13.76-13.53Z"/>
    <path class="st3" d="M468.2,540.98v-.15c0-8.47,6.43-12.85,16.03-12.85,3.78,0,7.48.76,9.83,1.59v-.68c0-4.23-2.65-6.65-8.16-6.65-4.31,0-7.63.83-11.26,2.27l-2.95-10.13c4.61-1.89,9.52-3.17,16.55-3.17s12.32,1.74,15.57,4.99c3.1,3.02,4.38,7.26,4.38,13v23.51h-14.21v-4.23c-2.8,3.1-6.65,5.14-12.02,5.14-7.79,0-13.76-4.46-13.76-12.62ZM494.2,537.88v-1.89c-1.44-.6-3.48-1.06-5.59-1.06-4.16,0-6.58,2.04-6.58,5.06v.15c0,2.8,2.12,4.46,5.06,4.46,4.16,0,7.11-2.65,7.11-6.73Z"/>
    <path class="st3" d="M517.64,497.51h14.36v55.18h-14.36v-55.18Z"/>
  </g>
</svg>