<?xml version="1.0" encoding="UTF-8"?>
<svg id="Layer_1" xmlns="http://www.w3.org/2000/svg" version="1.1" viewBox="0 0 600 600">
  <!-- Generator: Adobe Illustrator 29.1.0, SVG Export Plug-In . SVG Version: 2.1.0 Build 142)  -->
  <defs>
    <style>
      .st0 {
        fill: #c2cfc7;
      }

      .st1 {
        fill: #002d3a;
        opacity: .65;
      }

      .st2 {
        fill: #7bc36b;
      }

      .st3 {
        fill: #fff;
      }
    </style>
  </defs>
  <g>
    <path class="st1" d="M358.44,67.18c53.88,22.79,91.69,76.14,91.69,138.33,0,82.91-67.21,150.13-150.13,150.13s-150.13-67.21-150.13-150.13S217.09,55.38,300,55.38c20.73,0,40.47,4.2,58.44,11.8"/>
    <path class="st0" d="M300,377.21c-94.68,0-171.7-77.03-171.7-171.7S205.32,33.8,300,33.8c23.18,0,45.67,4.54,66.84,13.49,63.71,26.94,104.87,89.05,104.87,158.21,0,94.68-77.03,171.7-171.7,171.7ZM300,40.29c-91.1,0-165.22,74.12-165.22,165.22s74.12,165.22,165.22,165.22,165.22-74.12,165.22-165.22c0-66.55-39.61-126.31-100.91-152.24-20.37-8.61-42.01-12.98-64.31-12.98Z"/>
    <path class="st3" d="M313.09,136.15c.11-.11.19-.2.28-.29,1.5,1.3,11.3,8.68,27.02-5.38-16.44-9.23-27.24,5.18-27.24,5.18,0,0,.05.05.15.13-.09.09-.17.17-.28.28-.82.85-2.08,2.04-3.57,3.65-1.41,1.69-3.31,3.59-5.15,6.05-1.95,2.37-3.95,5.2-6.1,8.31-2.07,3.16-4.24,6.63-6.36,10.42-2.11,3.78-4.18,7.86-6.19,12.14-.96,2.16-1.94,4.36-2.92,6.58-.91,2.26-1.83,4.54-2.75,6.85-1.76,4.64-3.47,9.39-4.99,14.2-6.2,19.21-10.17,39.06-12.45,54.03-2.28,14.98-2.92,25.12-2.92,25.12l3.85.21s.09-2.46.43-6.83c.34-4.36.92-10.59,1.87-18.03.2-1.6.44-3.28.68-4.98,3.49,1.42,13.34,3.51,24.25-11.29-12.9-4.08-20.45,3.15-23.7,7.57.59-3.89,1.27-7.98,2.06-12.23.41.26,12.19,7.5,25.57-10.66-17.12-5.41-24.85,9.1-25.54,10.49.9-4.84,1.94-9.86,3.11-14.97,3.8,1.77,12.98,3.8,24.68-8.98-11.53-5.04-19.5.15-23.53,4.16.89-3.62,1.87-7.26,2.91-10.88,2.91,1.7,12.75,5.68,25.69-8.46-12.93-5.65-21.4,1.56-24.84,5.54,1.15-3.92,2.43-7.78,3.75-11.59,2.95,1.71,12.76,5.61,25.66-8.47-12.5-5.47-20.81,1.08-24.46,5.12.67-1.8,1.35-3.59,2.01-5.36.93-2.23,1.85-4.44,2.75-6.6.08-.19.17-.36.25-.55,2.65,1.63,12.64,6.11,25.87-8.34-12.35-5.4-20.61.93-24.33,4.98,1.33-2.87,2.68-5.67,4.06-8.29.77-1.46,1.55-2.83,2.33-4.19,1.91,1.64,11.43,8.39,26.98-4.87-12.8-7.6-22.41-.39-25.9,2.98.9-1.53,1.79-3.02,2.67-4.43,1.52-2.31,2.97-4.46,4.37-6.4,1.75,1.54,11.3,8.6,27.04-4.82-11.94-7.08-21.11-1.28-25.13,2.27,1.64-2.23,3.31-4.03,4.58-5.61,1.45-1.65,2.68-2.86,3.48-3.73Z"/>
    <g>
      <path class="st2" d="M395.27,113.07c-.85,0-1.69-.32-2.34-.97-46-45.83-121.5-50.72-171.87-11.12-1.45,1.13-3.53.88-4.66-.56-1.13-1.44-.88-3.53.56-4.66,52.96-41.63,132.32-36.52,180.65,11.63,1.3,1.29,1.3,3.39,0,4.69-.65.65-1.5.98-2.35.98Z"/>
      <path class="st2" d="M177.06,263.24c-1.27,0-2.49-.74-3.04-1.98-19.12-43.24-13.78-94.85,13.93-134.7,1.05-1.5,3.11-1.88,4.62-.83,1.5,1.05,1.88,3.11.83,4.62-26.4,37.96-31.5,87.09-13.31,128.23.74,1.68-.02,3.63-1.69,4.38-.44.19-.89.28-1.34.28Z"/>
      <path class="st2" d="M218.23,315.89c-.7,0-1.41-.22-2.01-.68-7.34-5.61-14.15-12.05-20.23-19.12-1.2-1.39-1.04-3.48.35-4.68,1.38-1.19,3.48-1.04,4.68.35,5.79,6.72,12.26,12.84,19.24,18.18,1.45,1.11,1.73,3.2.62,4.65-.65.85-1.64,1.3-2.64,1.3Z"/>
      <path class="st2" d="M300.09,343.38c-16.36,0-32.88-2.91-48.43-8.67-1.72-.64-2.6-2.55-1.96-4.26.64-1.72,2.55-2.6,4.26-1.96,24.52,9.09,51.61,10.74,76.26,4.65,34.73-8.58,65.15-32.77,83.46-66.36,18.12-33.26,21.95-71.49,10.48-104.9-.59-1.73.33-3.62,2.06-4.21,1.73-.59,3.62.33,4.22,2.06,12.06,35.16,8.08,75.34-10.94,110.22-19.2,35.22-51.16,60.6-87.69,69.62-10.29,2.54-20.98,3.8-31.74,3.8Z"/>
      <path class="st2" d="M420.9,148.76c-1.22,0-2.4-.68-2.97-1.85-1.54-3.1-3.21-6.18-4.99-9.14-.94-1.57-.42-3.61,1.15-4.55,1.57-.94,3.61-.43,4.55,1.15,1.86,3.12,3.62,6.35,5.23,9.6.82,1.64.14,3.63-1.5,4.45-.47.23-.98.35-1.47.35Z"/>
    </g>
  </g>
  <g>
    <path class="st3" d="M196.8,420.79h14.69v40.13h25.67v12.87h-40.36v-53Z"/>
    <path class="st3" d="M244.73,432.83h14.39v40.96h-14.39v-40.96ZM253.96,415.33l13.4,4.32-11.13,9.69h-10.15l7.87-14.01Z"/>
    <path class="st3" d="M268.96,432.83h14.39v5.75c2.65-3.41,6.44-6.66,12.27-6.66,8.71,0,13.93,5.75,13.93,15.07v26.8h-14.39v-22.18c0-4.47-2.35-6.89-5.75-6.89s-6.06,2.42-6.06,6.89v22.18h-14.39v-40.96Z"/>
    <path class="st3" d="M317.11,453.5v-.15c0-11.96,8.56-21.43,20.67-21.43,14.16,0,20.67,10.37,20.67,22.41,0,.91,0,1.97-.08,2.95h-27.41c1.14,4.47,4.39,6.74,8.86,6.74,3.41,0,6.13-1.29,9.09-4.16l7.95,6.59c-3.94,5-9.62,8.33-17.79,8.33-12.87,0-21.96-8.56-21.96-21.28ZM344.97,449.94c-.53-4.54-3.18-7.42-7.12-7.42s-6.36,2.95-7.12,7.42h14.23Z"/>
    <path class="st3" d="M364.36,462.05v-.15c0-8.48,6.44-12.87,16.05-12.87,3.79,0,7.5.76,9.84,1.59v-.68c0-4.24-2.65-6.66-8.18-6.66-4.32,0-7.65.83-11.28,2.27l-2.95-10.15c4.62-1.89,9.54-3.18,16.58-3.18s12.34,1.74,15.6,5c3.1,3.03,4.39,7.27,4.39,13.02v23.55h-14.23v-4.24c-2.8,3.1-6.66,5.15-12.04,5.15-7.8,0-13.78-4.47-13.78-12.64ZM390.4,458.95v-1.89c-1.44-.61-3.48-1.06-5.6-1.06-4.16,0-6.59,2.04-6.59,5.07v.15c0,2.8,2.12,4.47,5.07,4.47,4.16,0,7.12-2.65,7.12-6.74Z"/>
    <path class="st3" d="M154.51,499.72h14.16l22.56,53.38h-15.75l-3.86-9.46h-20.44l-3.79,9.46h-15.45l22.56-53.38ZM167.38,532.2l-5.91-15.07-5.98,15.07h11.89Z"/>
    <path class="st3" d="M195.1,560.67l4.62-9.54c4.39,2.42,8.78,3.86,14.31,3.86,7.19,0,10.75-3.56,10.75-10.07v-1.59c-2.88,3.33-6.66,6.13-12.64,6.13-10.07,0-18.17-7.27-18.17-19v-.15c0-11.81,8.25-19.08,17.72-19.08,6.13,0,9.77,2.5,12.87,5.75v-4.85h14.39v31.12c0,7.5-1.67,12.72-5.3,16.35-3.71,3.71-9.46,5.75-18.02,5.75-7.95,0-14.61-1.67-20.52-4.69ZM224.78,530.46v-.15c0-4.54-3.48-7.87-8.33-7.87s-8.4,3.41-8.4,7.95v.15c0,4.54,3.48,7.87,8.4,7.87s8.33-3.41,8.33-7.95Z"/>
    <path class="st3" d="M248.48,512.14h14.39v8.25c2.35-5.6,6.13-9.24,12.95-8.93v15.14h-1.21c-7.5,0-11.74,4.32-11.74,13.78v12.72h-14.39v-40.96Z"/>
    <path class="st3" d="M283,512.14h14.39v40.96h-14.39v-40.96ZM292.24,494.65l13.4,4.32-11.13,9.69h-10.15l7.87-14.01Z"/>
    <path class="st3" d="M305.56,532.81v-.15c0-11.58,9.01-21.35,21.96-21.35,8.4,0,14.01,3.63,17.49,9.16l-9.77,7.27c-1.97-2.73-4.17-4.32-7.65-4.32-4.62,0-8.03,4.09-8.03,9.08v.15c0,5.3,3.33,9.31,8.18,9.31,3.41,0,5.6-1.59,7.87-4.24l9.62,6.97c-3.79,5.6-9.24,9.39-18.25,9.39-12.34,0-21.43-9.69-21.43-21.28Z"/>
    <path class="st3" d="M349.33,532.81v-.15c0-11.66,9.54-21.43,22.71-21.43s22.56,9.62,22.56,21.28v.15c0,11.66-9.54,21.43-22.71,21.43s-22.56-9.62-22.56-21.28ZM380.6,532.81v-.15c0-5-3.63-9.24-8.71-9.24s-8.56,4.16-8.56,9.08v.15c0,5,3.63,9.24,8.71,9.24s8.56-4.16,8.56-9.08Z"/>
    <path class="st3" d="M402.78,497.83h14.39v55.27h-14.39v-55.27Z"/>
    <path class="st3" d="M424.97,541.37v-.15c0-8.48,6.44-12.87,16.05-12.87,3.79,0,7.5.76,9.84,1.59v-.68c0-4.24-2.65-6.66-8.18-6.66-4.32,0-7.65.83-11.28,2.27l-2.95-10.15c4.62-1.89,9.54-3.18,16.58-3.18s12.34,1.74,15.6,5c3.1,3.03,4.39,7.27,4.39,13.02v23.55h-14.23v-4.24c-2.8,3.1-6.66,5.15-12.04,5.15-7.8,0-13.78-4.47-13.78-12.64ZM451.01,538.26v-1.89c-1.44-.61-3.48-1.06-5.6-1.06-4.16,0-6.59,2.04-6.59,5.07v.15c0,2.8,2.12,4.47,5.07,4.47,4.16,0,7.12-2.65,7.12-6.74Z"/>
  </g>
</svg>