<?xml version="1.0" encoding="UTF-8"?>
<svg id="Layer_1" xmlns="http://www.w3.org/2000/svg" xmlns:xlink="http://www.w3.org/1999/xlink" version="1.1" viewBox="0 0 1010.65 363.4">
  <!-- Generator: Adobe Illustrator 29.1.0, SVG Export Plug-In . SVG Version: 2.1.0 Build 142)  -->
  <defs>
    <style>
      .st0 {
        filter: url(#drop-shadow-1);
      }

      .st1 {
        fill-rule: evenodd;
      }

      .st1, .st2 {
        fill: #fff;
      }
    </style>
    <filter id="drop-shadow-1" x="6.28" y="7.48" width="1012" height="363" filterUnits="userSpaceOnUse">
      <feOffset dx="7" dy="7"/>
      <feGaussianBlur result="blur" stdDeviation="5"/>
      <feFlood flood-color="#000" flood-opacity=".75"/>
      <feComposite in2="blur" operator="in"/>
      <feComposite in="SourceGraphic"/>
    </filter>
  </defs>
  <g class="st0">
    <g>
      <polygon class="st2" points="163.08 277.04 202.39 277.04 202.39 283.62 170.24 283.62 170.24 300.08 199.92 300.08 199.92 306.43 170.24 306.43 170.24 324.73 202.96 324.73 202.96 331.19 163.08 331.19 163.08 277.04"/>
      <rect class="st2" x="212.06" y="277.04" width="6.64" height="54.16"/>
      <path class="st2" d="M275.72,293.76c2.79,2.19,4.49,5.92,5,11.16h-6.43c-.38-2.43-1.28-4.45-2.71-6.03-1.34-1.59-3.64-2.36-6.75-2.36-4.22,0-7.2,2.02-9.07,6.15-1.11,2.7-1.79,5.98-1.79,9.88s.87,7.28,2.56,9.99c1.66,2.71,4.3,4.03,7.88,4.03,2.75,0,4.94-.87,6.52-2.54,1.64-1.6,2.75-3.94,3.36-6.86h6.43c-.7,5.26-2.56,9.09-5.49,11.52-2.98,2.36-6.75,3.6-11.37,3.6-5.17,0-9.22-1.87-12.31-5.66-3.13-3.81-4.64-8.49-4.64-14.12,0-6.92,1.7-12.33,5.07-16.22,3.34-3.81,7.68-5.77,12.84-5.77,4.45,0,8.11,1.04,10.9,3.22"/>
      <path class="st2" d="M316,295.63c3.47,3.45,5.24,8.39,5.24,14.94s-1.54,11.69-4.64,15.78c-3.07,4.17-7.85,6.22-14.33,6.22-5.39,0-9.64-1.83-12.8-5.47-3.19-3.7-4.77-8.62-4.77-14.84,0-6.6,1.7-11.9,5.05-15.8,3.32-3.92,7.77-5.84,13.39-5.84,5.05,0,9.35,1.6,12.86,5.01M311.89,321.88c1.58-3.32,2.37-7.01,2.37-11.11,0-3.7-.57-6.66-1.73-8.97-1.81-3.68-4.98-5.49-9.52-5.49-4.05,0-6.9,1.58-8.77,4.62-1.81,3.19-2.73,6.9-2.73,11.3,0,4.15.92,7.68,2.73,10.45,1.87,2.81,4.71,4.17,8.67,4.17,4.34,0,7.32-1.66,8.98-4.96"/>
      <path class="st2" d="M329.39,291.67h6.56v5.64c1.55-2.04,3.02-3.34,4.28-4.26,2.21-1.47,4.64-2.17,7.45-2.17,3.13,0,5.69.7,7.6,2.24,1.08.89,2.04,2.15,2.9,3.96,1.47-2.17,3.24-3.72,5.24-4.73,1.94-1.04,4.21-1.47,6.68-1.47,5.37,0,8.92,1.85,10.84,5.71,1.08,2.04,1.55,4.85,1.55,8.24v26.36h-6.84v-27.46c0-2.6-.7-4.39-1.94-5.45-1.36-.91-3-1.47-4.86-1.47-2.6,0-4.85.89-6.71,2.64-1.87,1.77-2.87,4.66-2.87,8.75v22.99h-6.75v-25.76c0-2.71-.26-4.73-.96-5.94-.96-1.79-2.87-2.71-5.64-2.71-2.45,0-4.75.96-6.84,2.9-1.98,1.92-3.04,5.39-3.04,10.56v20.95h-6.64v-39.52Z"/>
      <path class="st2" d="M391.73,291.82h6.51v5.32c1.3-1.87,2.77-3.17,4.32-4.2,2.3-1.45,4.9-2.21,7.9-2.21,4.55,0,8.32,1.74,11.48,5.15,3.09,3.47,4.68,8.35,4.68,14.69,0,8.62-2.3,14.74-6.75,18.48-2.9,2.3-6.2,3.45-10.01,3.45-3,0-5.51-.62-7.51-1.98-1.23-.68-2.51-1.98-3.98-3.72v20.16h-6.64v-55.13ZM416.69,322.8c2.04-2.6,3.07-6.43,3.07-11.64,0-3.17-.43-5.79-1.34-8.09-1.73-4.34-4.9-6.49-9.48-6.49s-7.77,2.3-9.45,6.83c-.92,2.51-1.4,5.58-1.4,9.39,0,3.05.47,5.64,1.4,7.81,1.71,4.04,4.84,6.13,9.45,6.13,3.11,0,5.71-1.32,7.75-3.94"/>
      <path class="st2" d="M455.44,307.27c1.53-.19,2.51-.79,3.07-1.89.26-.62.4-1.45.4-2.58,0-2.24-.77-3.9-2.39-4.9-1.6-1.08-3.88-1.58-6.88-1.58-3.47,0-5.9,1-7.32,2.85-.89,1.04-1.34,2.57-1.64,4.66h-6.17c.13-4.92,1.68-8.26,4.77-10.22,2.98-1.93,6.54-2.87,10.48-2.87,4.64,0,8.45.85,11.31,2.68,2.9,1.73,4.34,4.49,4.34,8.26v22.76c0,.68.11,1.19.42,1.62.26.42.89.6,1.79.6.32,0,.66,0,.96-.06.38,0,.77-.08,1.17-.13v4.88c-1,.3-1.81.47-2.34.53-.53.15-1.26.15-2.22.15-2.24,0-3.94-.83-4.98-2.43-.53-.85-.87-2.07-1.17-3.68-1.3,1.79-3.24,3.3-5.77,4.6-2.6,1.36-5.32,1.98-8.37,1.98-3.62,0-6.68-1.11-9.01-3.34-2.3-2.19-3.45-5.02-3.45-8.32,0-3.66,1.15-6.49,3.41-8.49,2.3-2.04,5.28-3.28,9.01-3.7l10.58-1.39ZM441.43,325.27c1.4,1.07,3.09,1.56,5.04,1.56,2.3,0,4.6-.49,6.81-1.56,3.66-1.87,5.47-4.77,5.47-8.86v-5.35c-.79.58-1.87,1.02-3.07,1.34-1.3.38-2.56.62-3.77.74l-4,.55c-2.43.26-4.24.87-5.45,1.53-2.06,1.11-3.09,2.96-3.09,5.52,0,1.91.74,3.34,2.07,4.55"/>
      <path class="st2" d="M497.96,292.93c1.21.7,2.53,2.02,4.04,3.85v-19.99h6.34v54.4h-6v-5.54c-1.47,2.41-3.34,4.26-5.41,5.28-2.13,1.09-4.51,1.64-7.24,1.64-4.43,0-8.24-1.87-11.41-5.52-3.21-3.68-4.79-8.69-4.79-14.78,0-5.75,1.47-10.71,4.38-14.95,2.94-4.22,7.09-6.35,12.56-6.35,3,0,5.51.62,7.54,1.98M483.14,322.5c1.81,2.85,4.68,4.3,8.58,4.3,3.07,0,5.6-1.32,7.6-4,1.94-2.66,2.94-6.39,2.94-11.39s-1.06-8.62-3.04-11.05c-2.09-2.43-4.54-3.58-7.56-3.58-3.32,0-6.01,1.26-8.09,3.81-2.09,2.58-3.07,6.34-3.07,11.31,0,4.22.87,7.73,2.64,10.6"/>
      <path class="st2" d="M518.48,291.67h6.28v6.79c.51-1.28,1.81-2.85,3.81-4.83,2.04-1.92,4.32-2.75,6.94-2.75h.66c.28,0,.77.02,1.51.08v7.05c-.4-.08-.74-.11-1.09-.21h-1.13c-3.28,0-5.85,1.09-7.66,3.26-1.83,2.11-2.68,4.6-2.68,7.41v22.72h-6.64v-39.52Z"/>
      <path class="st2" d="M567.84,292.76c2.6,1.3,4.6,3,5.92,5.13,1.36,2,2.22,4.26,2.66,6.94.38,1.83.6,4.71.6,8.71h-28.74c.13,4.07,1.08,7.3,2.81,9.69,1.79,2.41,4.49,3.6,8.15,3.6,3.47,0,6.17-1.11,8.24-3.43,1.19-1.3,1.94-2.9,2.43-4.64h6.54c-.17,1.43-.77,3.07-1.73,4.9-.96,1.75-2.04,3.17-3.24,4.36-1.96,1.92-4.47,3.32-7.41,4-1.62.36-3.39.55-5.39.55-4.85,0-9.01-1.83-12.43-5.37-3.38-3.53-5.07-8.56-5.07-14.97s1.7-11.58,5.11-15.52c3.41-3.94,7.94-5.83,13.44-5.83,2.71,0,5.47.6,8.11,1.89M570.18,308.26c-.26-2.83-.91-5.15-1.87-6.92-1.83-3.19-4.81-4.75-8.96-4.75-3.09,0-5.66,1.11-7.66,3.3-2.07,2.24-3.17,4.94-3.28,8.37h21.76Z"/>
      <path class="st2" d="M628.07,292.93c1.19.7,2.53,2.02,4.05,3.85v-19.99h6.32v54.4h-5.92v-5.54c-1.53,2.41-3.39,4.26-5.47,5.28-2.13,1.09-4.56,1.64-7.24,1.64-4.41,0-8.18-1.87-11.41-5.52-3.21-3.68-4.81-8.69-4.81-14.78,0-5.75,1.47-10.71,4.41-14.95,2.87-4.22,7.09-6.35,12.52-6.35,3.02,0,5.56.62,7.54,1.98M613.25,322.5c1.85,2.85,4.69,4.3,8.63,4.3,3.04,0,5.55-1.32,7.54-4,1.96-2.66,2.94-6.39,2.94-11.39s-1.02-8.62-3.07-11.05c-1.98-2.43-4.51-3.58-7.5-3.58-3.34,0-6.02,1.26-8.09,3.81-2.07,2.58-3.09,6.34-3.09,11.31,0,4.22.87,7.73,2.64,10.6"/>
      <path class="st2" d="M672.82,292.76c2.55,1.3,4.55,3,5.98,5.13,1.32,2,2.17,4.26,2.6,6.94.4,1.83.57,4.71.57,8.71h-28.7c.13,4.07,1.09,7.3,2.83,9.69,1.74,2.41,4.45,3.6,8.15,3.6,3.43,0,6.15-1.11,8.24-3.43,1.11-1.3,1.98-2.9,2.43-4.64h6.49c-.15,1.43-.68,3.07-1.7,4.9-.94,1.75-2.04,3.17-3.24,4.36-2,1.92-4.47,3.32-7.39,4-1.62.36-3.39.55-5.39.55-4.86,0-9.05-1.83-12.44-5.37-3.38-3.53-5.11-8.56-5.11-14.97s1.74-11.58,5.15-15.52c3.43-3.94,7.9-5.83,13.41-5.83,2.77,0,5.5.6,8.14,1.89M675.17,308.26c-.26-2.83-.89-5.15-1.88-6.92-1.81-3.19-4.81-4.75-9.01-4.75-3.07,0-5.55,1.11-7.62,3.3-2.07,2.24-3.13,4.94-3.21,8.37h21.72Z"/>
      <rect class="st2" x="690.54" y="277.04" width="6.68" height="54.16"/>
      <path class="st2" d="M749.32,307.27c1.51-.19,2.53-.79,3.04-1.89.3-.62.47-1.45.47-2.58,0-2.24-.77-3.9-2.41-4.9-1.62-1.08-3.9-1.58-6.9-1.58-3.47,0-5.88,1-7.35,2.85-.79,1.04-1.3,2.57-1.56,4.66h-6.24c.11-4.92,1.7-8.26,4.75-10.22,3.05-1.93,6.56-2.87,10.54-2.87,4.66,0,8.41.85,11.31,2.68,2.87,1.73,4.3,4.49,4.3,8.26v22.76c0,.68.17,1.19.43,1.62.26.42.87.6,1.77.6.3,0,.64,0,1.04-.06.36,0,.74-.08,1.17-.13v4.88c-1.04.3-1.83.47-2.39.53-.51.15-1.25.15-2.19.15-2.3,0-3.92-.83-4.94-2.43-.59-.85-.96-2.07-1.17-3.68-1.36,1.79-3.32,3.3-5.86,4.6-2.47,1.36-5.34,1.98-8.32,1.98-3.7,0-6.68-1.11-9.01-3.34-2.3-2.19-3.43-5.02-3.43-8.32,0-3.66,1.09-6.49,3.43-8.49,2.24-2.04,5.24-3.28,8.96-3.7l10.58-1.39ZM735.36,325.27c1.4,1.07,3.04,1.56,4.98,1.56,2.3,0,4.56-.49,6.73-1.56,3.75-1.87,5.58-4.77,5.58-8.86v-5.35c-.81.58-1.83,1.02-3.15,1.34-1.26.38-2.49.62-3.77.74l-4,.55c-2.38.26-4.21.87-5.39,1.53-2.11,1.11-3.09,2.96-3.09,5.52,0,1.91.68,3.34,2.11,4.55"/>
      <path class="st2" d="M792.06,293.27c1.26.87,2.55,2.09,3.87,3.81v-5.05h6.11v35.92c0,4.98-.75,8.97-2.22,11.92-2.71,5.34-7.92,8-15.56,8-4.21,0-7.75-.91-10.62-2.83-2.94-1.9-4.51-4.86-4.9-8.97h6.75c.32,1.81.92,3.19,1.92,4.11,1.47,1.49,3.81,2.19,7.01,2.19,5.09,0,8.41-1.77,9.94-5.37.94-2.13,1.34-5.92,1.3-11.33-1.3,2.06-2.9,3.56-4.77,4.49-1.87,1.06-4.3,1.51-7.37,1.51-4.3,0-8.03-1.51-11.18-4.55-3.21-3.05-4.77-8.05-4.77-15.08,0-6.51,1.56-11.79,4.81-15.43,3.21-3.73,7.07-5.64,11.65-5.64,3.04,0,5.73.75,8.03,2.32M792.87,300.4c-1.92-2.36-4.54-3.58-7.62-3.58-4.64,0-7.85,2.26-9.54,6.6-.9,2.38-1.34,5.38-1.34,9.15,0,4.49.87,7.86,2.64,10.18,1.83,2.36,4.21,3.47,7.24,3.47,4.77,0,8.11-2.17,10.01-6.45,1.13-2.45,1.66-5.22,1.66-8.54,0-4.79-1.02-8.43-3.05-10.82"/>
      <path class="st2" d="M812.3,291.67h6.34v6.79c.53-1.28,1.81-2.85,3.81-4.83,2.04-1.92,4.34-2.75,6.94-2.75h.64c.3,0,.83.02,1.51.08v7.05c-.38-.08-.75-.11-1.08-.21h-1.11c-3.3,0-5.86,1.09-7.69,3.26-1.81,2.11-2.68,4.6-2.68,7.41v22.72h-6.68v-39.52Z"/>
      <path class="st2" d="M865.89,295.63c3.51,3.45,5.28,8.39,5.28,14.94s-1.57,11.69-4.64,15.78c-3.09,4.17-7.85,6.22-14.31,6.22-5.41,0-9.71-1.83-12.86-5.47-3.17-3.7-4.77-8.62-4.77-14.84,0-6.6,1.7-11.9,5.01-15.8,3.39-3.92,7.81-5.84,13.44-5.84,5.11,0,9.37,1.6,12.84,5.01M861.81,321.88c1.59-3.32,2.38-7.01,2.38-11.11,0-3.7-.57-6.66-1.74-8.97-1.87-3.68-5.07-5.49-9.54-5.49-4.04,0-6.94,1.58-8.75,4.62-1.83,3.19-2.73,6.9-2.73,11.3,0,4.15.9,7.68,2.73,10.45,1.81,2.81,4.71,4.17,8.71,4.17,4.34,0,7.28-1.66,8.94-4.96"/>
      <path class="st1" d="M953.91,99.22c-23.23,0-41.88,18.37-41.88,41.11s18.65,41.44,41.88,41.44,42.22-18.67,42.22-41.44-18.93-41.11-42.22-41.11M953.91,155.26c-8.32,0-14.86-6.69-14.86-14.93,0-7.81,6.54-14.71,14.86-14.71s15.31,6.9,15.31,14.71c0,8.24-7,14.93-15.31,14.93"/>
      <path class="st1" d="M846.46,98.71h-45.59c-38.47,6.3-39.11,36.96-39.11,36.96,0,49.82,48.06,44.2,48.06,44.2v-27.66h-9.45c-10.56-3.34-8.79-13.44-8.79-13.44.68-8.99,9.28-10.99,9.28-10.99h16.73v52.1c0,5.62-7.2,7.01-7.2,7.01h-22.66v29.02h26.57c32.17-4.75,32.17-35.71,32.17-35.71v-81.48Z"/>
      <path class="st2" d="M705.23,73.3c-.81,0-1.7-.25-2.68-.25,0,0-45.44,1.15-45.6,53.68v53.74h27.17v-25.44h42.22v61.64h26.74v-90.53s0-50.52-47.86-52.85M726.35,125.04h-42.22c0-22.59,19.16-24.29,19.16-24.29h1.94c22.52,1.05,21.12,24.29,21.12,24.29"/>
      <path class="st1" d="M357.48,99.13h-103.82v79.97h27.96v-51.74h19.08s5.18,1.19,5.45,4.54v47.2h27.87v-50.1s0-.53-.15-1.64h20.91s5.26,1.19,5.26,4.54v47.2h27.81v-50.1s0-26.13-30.38-29.87"/>
      <path class="st1" d="M180.29,99.13h-38.75c-40.45,4.28-39.07,40.2-39.07,40.2,1.32,40.07,39.07,39.77,39.07,39.77h5.5v-27.96h-5.5c-12.37-1.88-11.88-11.8-11.88-11.8.57-11.62,11.61-11.97,11.61-11.97h12.29v51.74h26.72v-79.97Z"/>
      <path class="st1" d="M92.4,73.69h-44.61c-30.26,2.62-33.26,28.57-33.26,28.57v111.53h26.19v-60.13h51.84v-27.63h-51.67v-17.08c.26-5.32,6.6-7.03,6.6-7.03h44.92v-28.23Z"/>
      <path class="st1" d="M243.36,125.87v-28.06h-18.33c-32.39,4.73-32.62,32.6-32.62,32.6v48.7h25.45v-47.33c.26-5.58,6.11-5.92,6.11-5.92h19.38Z"/>
      <path class="st1" d="M908.22,126.81v-28.1h-18.33c-32.41,4.77-32.64,32.64-32.64,32.64v48.71h25.49v-47.31c.17-5.6,6.07-5.94,6.07-5.94h19.4Z"/>
      <path class="st2" d="M445.35,168.63s-.26,16.35,16.2,18.01l50.8-.32-67-56.76v39.07Z"/>
      <path class="st2" d="M517.87,144.21s-3.39-14.58-18.04-16.5h-48.69l66.73,56.53v-40.03Z"/>
      <path class="st2" d="M545.48,127.71c-15.01,1.92-18.65,16.5-18.65,16.5v40.71l71.05-57.21h-52.4Z"/>
      <path class="st2" d="M600.3,132.37l-66.96,53.95,50.5.43c17.05-1.6,16.46-18.08,16.46-18.08v-36.3Z"/>
      <path class="st2" d="M527.91,132.86c6.6-10.2,27.53-8.2,26.19-45.54-1.17-32.02-23.66-48.76-29.96-52.82v104.77c.87-1.62,2.06-3.72,3.77-6.41"/>
      <path class="st2" d="M490.91,87.32c-1.36,37.34,19.57,35.34,26.17,45.54.79,1.25,1.64,4.85,2.21,5.83l-.21-102.97c-7.94,5.62-27.1,22.21-28.17,51.61"/>
      <path class="st2" d="M610.91,15.54h-177.49c-15.46,0-28.04,13.5-28.04,30.11v182.06c0,16.65,12.58,30.17,28.04,30.17h177.49c15.54,0,28.1-13.52,28.1-30.17V45.65c0-16.61-12.56-30.11-28.1-30.11M549.42,195.33l49.93,56.51h-7.24l-49.46-56.78-18.8.19v59.87h-4.77v-59.87h-20.33l-53.63,58h-6.71l53.1-58-2.36.08-1.75.09h-8.03l.26-.17h-14.71l-53.7,24.91v-5.43l42.09-19.48h-42.09V45.65c0-13.27,9.97-24.14,22.19-24.14h177.49c12.31,0,22.25,10.86,22.25,24.14v149.61h-47.95l47.95,22.23v5.43l-56.4-27.66h-17.59l.26.17"/>
    </g>
  </g>
</svg>